G04 #@! TF.GenerationSoftware,KiCad,Pcbnew,7.0.6*
G04 #@! TF.CreationDate,2023-08-23T21:48:07+08:00*
G04 #@! TF.ProjectId,USB_TTL,5553425f-5454-44c2-9e6b-696361645f70,rev?*
G04 #@! TF.SameCoordinates,Original*
G04 #@! TF.FileFunction,Copper,L2,Bot*
G04 #@! TF.FilePolarity,Positive*
%FSLAX46Y46*%
G04 Gerber Fmt 4.6, Leading zero omitted, Abs format (unit mm)*
G04 Created by KiCad (PCBNEW 7.0.6) date 2023-08-23 21:48:07*
%MOMM*%
%LPD*%
G01*
G04 APERTURE LIST*
G04 #@! TA.AperFunction,ComponentPad*
%ADD10O,3.500000X1.900000*%
G04 #@! TD*
G04 #@! TA.AperFunction,ComponentPad*
%ADD11R,1.700000X1.700000*%
G04 #@! TD*
G04 #@! TA.AperFunction,ComponentPad*
%ADD12O,1.700000X1.700000*%
G04 #@! TD*
G04 #@! TA.AperFunction,ViaPad*
%ADD13C,1.000000*%
G04 #@! TD*
G04 #@! TA.AperFunction,Conductor*
%ADD14C,0.500000*%
G04 #@! TD*
G04 APERTURE END LIST*
D10*
X168571000Y-90282000D03*
X168571000Y-78882000D03*
D11*
X189046000Y-79126000D03*
D12*
X189046000Y-81666000D03*
X189046000Y-84206000D03*
X189046000Y-86746000D03*
X189046000Y-89286000D03*
D13*
X184912000Y-81788000D03*
X180467000Y-86614000D03*
X179324000Y-87757000D03*
D14*
X184912000Y-86106000D02*
X184404000Y-86614000D01*
X184404000Y-86614000D02*
X180467000Y-86614000D01*
X184912000Y-81788000D02*
X184912000Y-86106000D01*
X186182000Y-79756000D02*
X186812000Y-79126000D01*
X185547000Y-87757000D02*
X186182000Y-87122000D01*
X186812000Y-79126000D02*
X189046000Y-79126000D01*
X179324000Y-87757000D02*
X185547000Y-87757000D01*
X186182000Y-87122000D02*
X186182000Y-79756000D01*
G04 #@! TA.AperFunction,Conductor*
G36*
X190367539Y-76422185D02*
G01*
X190413294Y-76474989D01*
X190424500Y-76526500D01*
X190424500Y-77798708D01*
X190404815Y-77865747D01*
X190352011Y-77911502D01*
X190282853Y-77921446D01*
X190226189Y-77897974D01*
X190138335Y-77832206D01*
X190138328Y-77832202D01*
X190003482Y-77781908D01*
X190003483Y-77781908D01*
X189943883Y-77775501D01*
X189943881Y-77775500D01*
X189943873Y-77775500D01*
X189943864Y-77775500D01*
X188148129Y-77775500D01*
X188148123Y-77775501D01*
X188088516Y-77781908D01*
X187953671Y-77832202D01*
X187953664Y-77832206D01*
X187838455Y-77918452D01*
X187838452Y-77918455D01*
X187752206Y-78033664D01*
X187752202Y-78033671D01*
X187701908Y-78168517D01*
X187695501Y-78228116D01*
X187695500Y-78228135D01*
X187695500Y-78251500D01*
X187675815Y-78318539D01*
X187623011Y-78364294D01*
X187571500Y-78375500D01*
X186875708Y-78375500D01*
X186857737Y-78374191D01*
X186833979Y-78370711D01*
X186833973Y-78370710D01*
X186788903Y-78374654D01*
X186781931Y-78375264D01*
X186776530Y-78375500D01*
X186768289Y-78375500D01*
X186746579Y-78378037D01*
X186735724Y-78379306D01*
X186720419Y-78380645D01*
X186659199Y-78386001D01*
X186652132Y-78387460D01*
X186652120Y-78387404D01*
X186644763Y-78389035D01*
X186644777Y-78389092D01*
X186637743Y-78390759D01*
X186565575Y-78417025D01*
X186492675Y-78441181D01*
X186486126Y-78444236D01*
X186486101Y-78444183D01*
X186479308Y-78447471D01*
X186479334Y-78447523D01*
X186472880Y-78450764D01*
X186408708Y-78492971D01*
X186343347Y-78533285D01*
X186337683Y-78537765D01*
X186337647Y-78537719D01*
X186331797Y-78542485D01*
X186331834Y-78542529D01*
X186326305Y-78547168D01*
X186273598Y-78603033D01*
X185696358Y-79180272D01*
X185682729Y-79192051D01*
X185663468Y-79206390D01*
X185629898Y-79246397D01*
X185626253Y-79250376D01*
X185620409Y-79256222D01*
X185600059Y-79281959D01*
X185550695Y-79340789D01*
X185546729Y-79346819D01*
X185546682Y-79346788D01*
X185542630Y-79353147D01*
X185542679Y-79353177D01*
X185538889Y-79359321D01*
X185506424Y-79428941D01*
X185471960Y-79497566D01*
X185469488Y-79504357D01*
X185469432Y-79504336D01*
X185466960Y-79511450D01*
X185467015Y-79511469D01*
X185464742Y-79518327D01*
X185456975Y-79555946D01*
X185449207Y-79593565D01*
X185436001Y-79649284D01*
X185431498Y-79668286D01*
X185430661Y-79675454D01*
X185430601Y-79675447D01*
X185429835Y-79682945D01*
X185429895Y-79682951D01*
X185429265Y-79690140D01*
X185431500Y-79766916D01*
X185431500Y-80732874D01*
X185411815Y-80799913D01*
X185359011Y-80845668D01*
X185289853Y-80855612D01*
X185271505Y-80851535D01*
X185108130Y-80801975D01*
X184912000Y-80782659D01*
X184715870Y-80801975D01*
X184527266Y-80859188D01*
X184353467Y-80952086D01*
X184353460Y-80952090D01*
X184201116Y-81077116D01*
X184076090Y-81229460D01*
X184076086Y-81229467D01*
X183983188Y-81403266D01*
X183925975Y-81591870D01*
X183906659Y-81788000D01*
X183925975Y-81984129D01*
X183925976Y-81984132D01*
X183981145Y-82166000D01*
X183983188Y-82172733D01*
X184076084Y-82346529D01*
X184076087Y-82346533D01*
X184076090Y-82346538D01*
X184133354Y-82416314D01*
X184160666Y-82480620D01*
X184161500Y-82494976D01*
X184161500Y-85739500D01*
X184141815Y-85806539D01*
X184089011Y-85852294D01*
X184037500Y-85863500D01*
X181173978Y-85863500D01*
X181106939Y-85843815D01*
X181095313Y-85835353D01*
X181025539Y-85778090D01*
X181025532Y-85778086D01*
X180851733Y-85685188D01*
X180851727Y-85685186D01*
X180663132Y-85627976D01*
X180663129Y-85627975D01*
X180467000Y-85608659D01*
X180270870Y-85627975D01*
X180082266Y-85685188D01*
X179908467Y-85778086D01*
X179908460Y-85778090D01*
X179756116Y-85903116D01*
X179631090Y-86055460D01*
X179631086Y-86055467D01*
X179538188Y-86229266D01*
X179480975Y-86417870D01*
X179461659Y-86614000D01*
X179461659Y-86614002D01*
X179461889Y-86616340D01*
X179461659Y-86617552D01*
X179461659Y-86620092D01*
X179461177Y-86620092D01*
X179448865Y-86684985D01*
X179400796Y-86735692D01*
X179332944Y-86752361D01*
X179326340Y-86751889D01*
X179324003Y-86751659D01*
X179324000Y-86751659D01*
X179127870Y-86770975D01*
X178939266Y-86828188D01*
X178765467Y-86921086D01*
X178765460Y-86921090D01*
X178613116Y-87046116D01*
X178488090Y-87198460D01*
X178488086Y-87198467D01*
X178395188Y-87372266D01*
X178337975Y-87560870D01*
X178318659Y-87757000D01*
X178337975Y-87953129D01*
X178395188Y-88141733D01*
X178488086Y-88315532D01*
X178488090Y-88315539D01*
X178613116Y-88467883D01*
X178765460Y-88592909D01*
X178765467Y-88592913D01*
X178939266Y-88685811D01*
X178939269Y-88685811D01*
X178939273Y-88685814D01*
X179127868Y-88743024D01*
X179324000Y-88762341D01*
X179520132Y-88743024D01*
X179708727Y-88685814D01*
X179882538Y-88592910D01*
X179952312Y-88535647D01*
X180016623Y-88508334D01*
X180030978Y-88507500D01*
X185483295Y-88507500D01*
X185501265Y-88508809D01*
X185525023Y-88512289D01*
X185577068Y-88507735D01*
X185582470Y-88507500D01*
X185590704Y-88507500D01*
X185590709Y-88507500D01*
X185602327Y-88506141D01*
X185623276Y-88503693D01*
X185636028Y-88502577D01*
X185699797Y-88496999D01*
X185699805Y-88496996D01*
X185706866Y-88495539D01*
X185706878Y-88495598D01*
X185714243Y-88493965D01*
X185714229Y-88493906D01*
X185721246Y-88492241D01*
X185721255Y-88492241D01*
X185793423Y-88465974D01*
X185866334Y-88441814D01*
X185866343Y-88441807D01*
X185872882Y-88438760D01*
X185872908Y-88438816D01*
X185879690Y-88435532D01*
X185879663Y-88435478D01*
X185886106Y-88432240D01*
X185886117Y-88432237D01*
X185950283Y-88390034D01*
X186015656Y-88349712D01*
X186015662Y-88349705D01*
X186021325Y-88345229D01*
X186021362Y-88345277D01*
X186027204Y-88340518D01*
X186027164Y-88340471D01*
X186032686Y-88335836D01*
X186032696Y-88335830D01*
X186054399Y-88312825D01*
X186085387Y-88279981D01*
X186450941Y-87914425D01*
X186667641Y-87697724D01*
X186681260Y-87685954D01*
X186700530Y-87671610D01*
X186734123Y-87631574D01*
X186737757Y-87627608D01*
X186743591Y-87621776D01*
X186763930Y-87596052D01*
X186813302Y-87537214D01*
X186813306Y-87537205D01*
X186817274Y-87531175D01*
X186817325Y-87531208D01*
X186821369Y-87524860D01*
X186821317Y-87524828D01*
X186825104Y-87518685D01*
X186825111Y-87518677D01*
X186857572Y-87449063D01*
X186892040Y-87380433D01*
X186892041Y-87380427D01*
X186894508Y-87373650D01*
X186894566Y-87373671D01*
X186897043Y-87366544D01*
X186896986Y-87366526D01*
X186899255Y-87359679D01*
X186899256Y-87359674D01*
X186899257Y-87359672D01*
X186914790Y-87284441D01*
X186932500Y-87209721D01*
X186932500Y-87209719D01*
X186933339Y-87202548D01*
X186933398Y-87202554D01*
X186934164Y-87195054D01*
X186934105Y-87195049D01*
X186934734Y-87187859D01*
X186932500Y-87111082D01*
X186932500Y-80118229D01*
X186952185Y-80051190D01*
X186968819Y-80030548D01*
X187086548Y-79912819D01*
X187147871Y-79879334D01*
X187174229Y-79876500D01*
X187571501Y-79876500D01*
X187638540Y-79896185D01*
X187684295Y-79948989D01*
X187695501Y-80000500D01*
X187695501Y-80023876D01*
X187701908Y-80083483D01*
X187752202Y-80218328D01*
X187752206Y-80218335D01*
X187838452Y-80333544D01*
X187838455Y-80333547D01*
X187953664Y-80419793D01*
X187953671Y-80419797D01*
X187953674Y-80419798D01*
X188085598Y-80469002D01*
X188141531Y-80510873D01*
X188165949Y-80576337D01*
X188151098Y-80644610D01*
X188129947Y-80672865D01*
X188007886Y-80794926D01*
X187872400Y-80988420D01*
X187872399Y-80988422D01*
X187772570Y-81202507D01*
X187772567Y-81202513D01*
X187715364Y-81415999D01*
X187715364Y-81416000D01*
X188612314Y-81416000D01*
X188586507Y-81456156D01*
X188546000Y-81594111D01*
X188546000Y-81737889D01*
X188586507Y-81875844D01*
X188612314Y-81916000D01*
X187715364Y-81916000D01*
X187772567Y-82129486D01*
X187772570Y-82129492D01*
X187872399Y-82343578D01*
X188007894Y-82537082D01*
X188174917Y-82704105D01*
X188360595Y-82834119D01*
X188404219Y-82888696D01*
X188411412Y-82958195D01*
X188379890Y-83020549D01*
X188360595Y-83037269D01*
X188174594Y-83167508D01*
X188007505Y-83334597D01*
X187871965Y-83528169D01*
X187871964Y-83528171D01*
X187772098Y-83742335D01*
X187772094Y-83742344D01*
X187710938Y-83970586D01*
X187710936Y-83970596D01*
X187690341Y-84205999D01*
X187690341Y-84206000D01*
X187710936Y-84441403D01*
X187710938Y-84441413D01*
X187772094Y-84669655D01*
X187772096Y-84669659D01*
X187772097Y-84669663D01*
X187862326Y-84863159D01*
X187871965Y-84883830D01*
X187871967Y-84883834D01*
X187921737Y-84954912D01*
X188007501Y-85077396D01*
X188007506Y-85077402D01*
X188174597Y-85244493D01*
X188174603Y-85244498D01*
X188360158Y-85374425D01*
X188403783Y-85429002D01*
X188410977Y-85498500D01*
X188379454Y-85560855D01*
X188360158Y-85577575D01*
X188174597Y-85707505D01*
X188007505Y-85874597D01*
X187871965Y-86068169D01*
X187871964Y-86068171D01*
X187772098Y-86282335D01*
X187772094Y-86282344D01*
X187710938Y-86510586D01*
X187710936Y-86510596D01*
X187690341Y-86745999D01*
X187690341Y-86746000D01*
X187710936Y-86981403D01*
X187710938Y-86981413D01*
X187772094Y-87209655D01*
X187772096Y-87209659D01*
X187772097Y-87209663D01*
X187851729Y-87380433D01*
X187871965Y-87423830D01*
X187871967Y-87423834D01*
X187980281Y-87578521D01*
X188007501Y-87617396D01*
X188007506Y-87617402D01*
X188174597Y-87784493D01*
X188174603Y-87784498D01*
X188360158Y-87914425D01*
X188403783Y-87969002D01*
X188410977Y-88038500D01*
X188379454Y-88100855D01*
X188360158Y-88117575D01*
X188174597Y-88247505D01*
X188007505Y-88414597D01*
X187871965Y-88608169D01*
X187871964Y-88608171D01*
X187772098Y-88822335D01*
X187772094Y-88822344D01*
X187710938Y-89050586D01*
X187710936Y-89050596D01*
X187690341Y-89285999D01*
X187690341Y-89286000D01*
X187710936Y-89521403D01*
X187710938Y-89521413D01*
X187772094Y-89749655D01*
X187772096Y-89749659D01*
X187772097Y-89749663D01*
X187844995Y-89905993D01*
X187871965Y-89963830D01*
X187871967Y-89963834D01*
X187896073Y-89998260D01*
X188007505Y-90157401D01*
X188174599Y-90324495D01*
X188258531Y-90383265D01*
X188368165Y-90460032D01*
X188368167Y-90460033D01*
X188368170Y-90460035D01*
X188582337Y-90559903D01*
X188810592Y-90621063D01*
X188998918Y-90637539D01*
X189045999Y-90641659D01*
X189046000Y-90641659D01*
X189046001Y-90641659D01*
X189085234Y-90638226D01*
X189281408Y-90621063D01*
X189509663Y-90559903D01*
X189723830Y-90460035D01*
X189917401Y-90324495D01*
X190084495Y-90157401D01*
X190198925Y-89993977D01*
X190253502Y-89950353D01*
X190323000Y-89943159D01*
X190385355Y-89974682D01*
X190420769Y-90034912D01*
X190424500Y-90065101D01*
X190424500Y-92256500D01*
X190404815Y-92323539D01*
X190352011Y-92369294D01*
X190300500Y-92380500D01*
X165553500Y-92380500D01*
X165486461Y-92360815D01*
X165440706Y-92308011D01*
X165429500Y-92256500D01*
X165429500Y-90532000D01*
X166342669Y-90532000D01*
X166360553Y-90639176D01*
X166438576Y-90866449D01*
X166438578Y-90866455D01*
X166552947Y-91077790D01*
X166700544Y-91267422D01*
X166877338Y-91430173D01*
X166877342Y-91430176D01*
X167078509Y-91561606D01*
X167298571Y-91658134D01*
X167531523Y-91717125D01*
X167711035Y-91732000D01*
X168321000Y-91732000D01*
X168321000Y-90732000D01*
X168821000Y-90732000D01*
X168821000Y-91732000D01*
X169430965Y-91732000D01*
X169610476Y-91717125D01*
X169843428Y-91658134D01*
X170063490Y-91561606D01*
X170264657Y-91430176D01*
X170264661Y-91430173D01*
X170441455Y-91267422D01*
X170589052Y-91077790D01*
X170703421Y-90866455D01*
X170703423Y-90866449D01*
X170781446Y-90639176D01*
X170799331Y-90532000D01*
X169746278Y-90532000D01*
X169794625Y-90448260D01*
X169824810Y-90316008D01*
X169814673Y-90180735D01*
X169765113Y-90054459D01*
X169747203Y-90032000D01*
X170799330Y-90032000D01*
X170799330Y-90031999D01*
X170781446Y-89924823D01*
X170703423Y-89697550D01*
X170703421Y-89697544D01*
X170589052Y-89486209D01*
X170441455Y-89296577D01*
X170264661Y-89133826D01*
X170264657Y-89133823D01*
X170063490Y-89002393D01*
X169843428Y-88905865D01*
X169610476Y-88846874D01*
X169430965Y-88832000D01*
X168821000Y-88832000D01*
X168821000Y-89832000D01*
X168321000Y-89832000D01*
X168321000Y-88832000D01*
X167711035Y-88832000D01*
X167531523Y-88846874D01*
X167298571Y-88905865D01*
X167078509Y-89002393D01*
X166877342Y-89133823D01*
X166877338Y-89133826D01*
X166700544Y-89296577D01*
X166552947Y-89486209D01*
X166438578Y-89697544D01*
X166438576Y-89697550D01*
X166360553Y-89924823D01*
X166342669Y-90031999D01*
X166342670Y-90032000D01*
X167395722Y-90032000D01*
X167347375Y-90115740D01*
X167317190Y-90247992D01*
X167327327Y-90383265D01*
X167376887Y-90509541D01*
X167394797Y-90532000D01*
X166342669Y-90532000D01*
X165429500Y-90532000D01*
X165429500Y-86882003D01*
X167765435Y-86882003D01*
X167785630Y-87061249D01*
X167785631Y-87061254D01*
X167845211Y-87231523D01*
X167878462Y-87284441D01*
X167941184Y-87384262D01*
X168068738Y-87511816D01*
X168146804Y-87560868D01*
X168202798Y-87596052D01*
X168221478Y-87607789D01*
X168391745Y-87667367D01*
X168391745Y-87667368D01*
X168391750Y-87667369D01*
X168482246Y-87677565D01*
X168526040Y-87682499D01*
X168526043Y-87682500D01*
X168526046Y-87682500D01*
X168615957Y-87682500D01*
X168615958Y-87682499D01*
X168683104Y-87674934D01*
X168750249Y-87667369D01*
X168750252Y-87667368D01*
X168750255Y-87667368D01*
X168920522Y-87607789D01*
X169073262Y-87511816D01*
X169200816Y-87384262D01*
X169296789Y-87231522D01*
X169356368Y-87061255D01*
X169358074Y-87046116D01*
X169376565Y-86882003D01*
X169376565Y-86881996D01*
X169356369Y-86702750D01*
X169356368Y-86702745D01*
X169296789Y-86532478D01*
X169200816Y-86379738D01*
X169073262Y-86252184D01*
X168920523Y-86156211D01*
X168750254Y-86096631D01*
X168750249Y-86096630D01*
X168615960Y-86081500D01*
X168615954Y-86081500D01*
X168526046Y-86081500D01*
X168526039Y-86081500D01*
X168391750Y-86096630D01*
X168391745Y-86096631D01*
X168221476Y-86156211D01*
X168068737Y-86252184D01*
X167941184Y-86379737D01*
X167845211Y-86532476D01*
X167785631Y-86702745D01*
X167785630Y-86702750D01*
X167765435Y-86881996D01*
X167765435Y-86882003D01*
X165429500Y-86882003D01*
X165429500Y-82282003D01*
X167765435Y-82282003D01*
X167785630Y-82461249D01*
X167785631Y-82461254D01*
X167845211Y-82631523D01*
X167890818Y-82704105D01*
X167941184Y-82784262D01*
X168068738Y-82911816D01*
X168221478Y-83007789D01*
X168305727Y-83037269D01*
X168391745Y-83067368D01*
X168391750Y-83067369D01*
X168482246Y-83077565D01*
X168526040Y-83082499D01*
X168526043Y-83082500D01*
X168526046Y-83082500D01*
X168615957Y-83082500D01*
X168615958Y-83082499D01*
X168683104Y-83074934D01*
X168750249Y-83067369D01*
X168750252Y-83067368D01*
X168750255Y-83067368D01*
X168920522Y-83007789D01*
X169073262Y-82911816D01*
X169200816Y-82784262D01*
X169296789Y-82631522D01*
X169356368Y-82461255D01*
X169357568Y-82450609D01*
X169376565Y-82282003D01*
X169376565Y-82281996D01*
X169356369Y-82102750D01*
X169356368Y-82102745D01*
X169352241Y-82090952D01*
X169296789Y-81932478D01*
X169200816Y-81779738D01*
X169073262Y-81652184D01*
X168920523Y-81556211D01*
X168750254Y-81496631D01*
X168750249Y-81496630D01*
X168615960Y-81481500D01*
X168615954Y-81481500D01*
X168526046Y-81481500D01*
X168526039Y-81481500D01*
X168391750Y-81496630D01*
X168391745Y-81496631D01*
X168221476Y-81556211D01*
X168068737Y-81652184D01*
X167941184Y-81779737D01*
X167845211Y-81932476D01*
X167785631Y-82102745D01*
X167785630Y-82102750D01*
X167765435Y-82281996D01*
X167765435Y-82282003D01*
X165429500Y-82282003D01*
X165429500Y-79132000D01*
X166342669Y-79132000D01*
X166360553Y-79239176D01*
X166438576Y-79466449D01*
X166438578Y-79466455D01*
X166552947Y-79677790D01*
X166700544Y-79867422D01*
X166877338Y-80030173D01*
X166877342Y-80030176D01*
X167078509Y-80161606D01*
X167298571Y-80258134D01*
X167531523Y-80317125D01*
X167711035Y-80332000D01*
X168321000Y-80332000D01*
X168321000Y-79332000D01*
X168821000Y-79332000D01*
X168821000Y-80332000D01*
X169430965Y-80332000D01*
X169610476Y-80317125D01*
X169843428Y-80258134D01*
X170063490Y-80161606D01*
X170264657Y-80030176D01*
X170264661Y-80030173D01*
X170441455Y-79867422D01*
X170589052Y-79677790D01*
X170703421Y-79466455D01*
X170703423Y-79466449D01*
X170781446Y-79239176D01*
X170799331Y-79132000D01*
X169746278Y-79132000D01*
X169794625Y-79048260D01*
X169824810Y-78916008D01*
X169814673Y-78780735D01*
X169765113Y-78654459D01*
X169747203Y-78632000D01*
X170799330Y-78632000D01*
X170799330Y-78631999D01*
X170781446Y-78524823D01*
X170703423Y-78297550D01*
X170703421Y-78297544D01*
X170589052Y-78086209D01*
X170441455Y-77896577D01*
X170264661Y-77733826D01*
X170264657Y-77733823D01*
X170063490Y-77602393D01*
X169843428Y-77505865D01*
X169610476Y-77446874D01*
X169430965Y-77432000D01*
X168821000Y-77432000D01*
X168821000Y-78432000D01*
X168321000Y-78432000D01*
X168321000Y-77432000D01*
X167711035Y-77432000D01*
X167531523Y-77446874D01*
X167298571Y-77505865D01*
X167078509Y-77602393D01*
X166877342Y-77733823D01*
X166877338Y-77733826D01*
X166700544Y-77896577D01*
X166552947Y-78086209D01*
X166438578Y-78297544D01*
X166438576Y-78297550D01*
X166360553Y-78524823D01*
X166342669Y-78631999D01*
X166342670Y-78632000D01*
X167395722Y-78632000D01*
X167347375Y-78715740D01*
X167317190Y-78847992D01*
X167327327Y-78983265D01*
X167376887Y-79109541D01*
X167394797Y-79132000D01*
X166342669Y-79132000D01*
X165429500Y-79132000D01*
X165429500Y-76526500D01*
X165449185Y-76459461D01*
X165501989Y-76413706D01*
X165553500Y-76402500D01*
X190300500Y-76402500D01*
X190367539Y-76422185D01*
G37*
G04 #@! TD.AperFunction*
M02*
