G04 #@! TF.GenerationSoftware,KiCad,Pcbnew,7.0.6*
G04 #@! TF.CreationDate,2023-08-23T21:48:07+08:00*
G04 #@! TF.ProjectId,USB_TTL,5553425f-5454-44c2-9e6b-696361645f70,rev?*
G04 #@! TF.SameCoordinates,Original*
G04 #@! TF.FileFunction,Copper,L1,Top*
G04 #@! TF.FilePolarity,Positive*
%FSLAX46Y46*%
G04 Gerber Fmt 4.6, Leading zero omitted, Abs format (unit mm)*
G04 Created by KiCad (PCBNEW 7.0.6) date 2023-08-23 21:48:07*
%MOMM*%
%LPD*%
G01*
G04 APERTURE LIST*
G04 Aperture macros list*
%AMRoundRect*
0 Rectangle with rounded corners*
0 $1 Rounding radius*
0 $2 $3 $4 $5 $6 $7 $8 $9 X,Y pos of 4 corners*
0 Add a 4 corners polygon primitive as box body*
4,1,4,$2,$3,$4,$5,$6,$7,$8,$9,$2,$3,0*
0 Add four circle primitives for the rounded corners*
1,1,$1+$1,$2,$3*
1,1,$1+$1,$4,$5*
1,1,$1+$1,$6,$7*
1,1,$1+$1,$8,$9*
0 Add four rect primitives between the rounded corners*
20,1,$1+$1,$2,$3,$4,$5,0*
20,1,$1+$1,$4,$5,$6,$7,0*
20,1,$1+$1,$6,$7,$8,$9,0*
20,1,$1+$1,$8,$9,$2,$3,0*%
G04 Aperture macros list end*
G04 #@! TA.AperFunction,SMDPad,CuDef*
%ADD10RoundRect,0.100000X0.130000X0.100000X-0.130000X0.100000X-0.130000X-0.100000X0.130000X-0.100000X0*%
G04 #@! TD*
G04 #@! TA.AperFunction,SMDPad,CuDef*
%ADD11RoundRect,0.100000X-0.100000X0.130000X-0.100000X-0.130000X0.100000X-0.130000X0.100000X0.130000X0*%
G04 #@! TD*
G04 #@! TA.AperFunction,SMDPad,CuDef*
%ADD12RoundRect,0.100000X0.100000X-0.130000X0.100000X0.130000X-0.100000X0.130000X-0.100000X-0.130000X0*%
G04 #@! TD*
G04 #@! TA.AperFunction,SMDPad,CuDef*
%ADD13R,2.500000X1.100000*%
G04 #@! TD*
G04 #@! TA.AperFunction,ComponentPad*
%ADD14O,3.500000X1.900000*%
G04 #@! TD*
G04 #@! TA.AperFunction,SMDPad,CuDef*
%ADD15RoundRect,0.150000X-0.825000X-0.150000X0.825000X-0.150000X0.825000X0.150000X-0.825000X0.150000X0*%
G04 #@! TD*
G04 #@! TA.AperFunction,ComponentPad*
%ADD16R,1.700000X1.700000*%
G04 #@! TD*
G04 #@! TA.AperFunction,ComponentPad*
%ADD17O,1.700000X1.700000*%
G04 #@! TD*
G04 #@! TA.AperFunction,ViaPad*
%ADD18C,1.000000*%
G04 #@! TD*
G04 #@! TA.AperFunction,Conductor*
%ADD19C,0.500000*%
G04 #@! TD*
G04 #@! TA.AperFunction,Conductor*
%ADD20C,1.000000*%
G04 #@! TD*
G04 #@! TA.AperFunction,Conductor*
%ADD21C,0.280000*%
G04 #@! TD*
G04 APERTURE END LIST*
D10*
X182565000Y-82550000D03*
X181925000Y-82550000D03*
D11*
X184912000Y-83083000D03*
X184912000Y-83723000D03*
D12*
X184912000Y-85283000D03*
X184912000Y-84643000D03*
D10*
X182565000Y-89027000D03*
X181925000Y-89027000D03*
D13*
X171321000Y-88082000D03*
X171321000Y-85582000D03*
X171321000Y-83582000D03*
X171321000Y-81082000D03*
D14*
X168571000Y-90282000D03*
X168571000Y-78882000D03*
D15*
X177611000Y-83947000D03*
X177611000Y-85217000D03*
X177611000Y-86487000D03*
X177611000Y-87757000D03*
X182561000Y-87757000D03*
X182561000Y-86487000D03*
X182561000Y-85217000D03*
X182561000Y-83947000D03*
D12*
X184912000Y-88712000D03*
X184912000Y-88072000D03*
D11*
X184912000Y-86548000D03*
X184912000Y-87188000D03*
D16*
X189046000Y-79126000D03*
D17*
X189046000Y-81666000D03*
X189046000Y-84206000D03*
X189046000Y-86746000D03*
X189046000Y-89286000D03*
D18*
X184912000Y-81788000D03*
X180467000Y-86614000D03*
X179324000Y-87757000D03*
D19*
X182565000Y-83943000D02*
X182561000Y-83947000D01*
X182565000Y-82550000D02*
X182565000Y-83943000D01*
X182561000Y-87757000D02*
X180848000Y-87757000D01*
X180467000Y-87376000D02*
X180467000Y-86614000D01*
X180848000Y-87757000D02*
X180467000Y-87376000D01*
X182561000Y-89812000D02*
X182626000Y-89877000D01*
D20*
X173116000Y-89877000D02*
X182626000Y-89877000D01*
X182626000Y-89877000D02*
X188455000Y-89877000D01*
D19*
X182561000Y-87757000D02*
X182561000Y-89812000D01*
X184912000Y-81788000D02*
X184912000Y-83083000D01*
D20*
X188455000Y-89877000D02*
X189046000Y-89286000D01*
X171321000Y-88082000D02*
X173116000Y-89877000D01*
D19*
X182627000Y-85283000D02*
X184912000Y-85283000D01*
X187969000Y-85283000D02*
X189046000Y-84206000D01*
X184912000Y-85283000D02*
X187969000Y-85283000D01*
X182561000Y-85217000D02*
X182627000Y-85283000D01*
X182561000Y-86487000D02*
X184851000Y-86487000D01*
X184851000Y-86487000D02*
X184912000Y-86548000D01*
X184912000Y-86548000D02*
X188848000Y-86548000D01*
X188848000Y-86548000D02*
X189046000Y-86746000D01*
D21*
X176148499Y-85217000D02*
X175729499Y-84798000D01*
X175729499Y-84798000D02*
X173980001Y-84798000D01*
X177611000Y-85217000D02*
X176148499Y-85217000D01*
X173196001Y-85582000D02*
X171321000Y-85582000D01*
X173980001Y-84798000D02*
X173196001Y-85582000D01*
X173980001Y-84366000D02*
X173196001Y-83582000D01*
X175729499Y-84366000D02*
X173980001Y-84366000D01*
X177611000Y-83947000D02*
X176148499Y-83947000D01*
X173196001Y-83582000D02*
X171321000Y-83582000D01*
X176148499Y-83947000D02*
X175729499Y-84366000D01*
D19*
X177611000Y-87757000D02*
X179324000Y-87757000D01*
G04 #@! TA.AperFunction,Conductor*
G36*
X190367539Y-76422185D02*
G01*
X190413294Y-76474989D01*
X190424500Y-76526500D01*
X190424500Y-77798708D01*
X190404815Y-77865747D01*
X190352011Y-77911502D01*
X190282853Y-77921446D01*
X190226189Y-77897974D01*
X190138335Y-77832206D01*
X190138328Y-77832202D01*
X190003482Y-77781908D01*
X190003483Y-77781908D01*
X189943883Y-77775501D01*
X189943881Y-77775500D01*
X189943873Y-77775500D01*
X189943864Y-77775500D01*
X188148129Y-77775500D01*
X188148123Y-77775501D01*
X188088516Y-77781908D01*
X187953671Y-77832202D01*
X187953664Y-77832206D01*
X187838455Y-77918452D01*
X187838452Y-77918455D01*
X187752206Y-78033664D01*
X187752202Y-78033671D01*
X187701908Y-78168517D01*
X187695501Y-78228116D01*
X187695500Y-78228135D01*
X187695500Y-80023870D01*
X187695501Y-80023876D01*
X187701908Y-80083483D01*
X187752202Y-80218328D01*
X187752206Y-80218335D01*
X187838452Y-80333544D01*
X187838455Y-80333547D01*
X187953664Y-80419793D01*
X187953671Y-80419797D01*
X188015902Y-80443007D01*
X188085598Y-80469002D01*
X188141531Y-80510873D01*
X188165949Y-80576337D01*
X188151098Y-80644610D01*
X188129947Y-80672865D01*
X188007886Y-80794926D01*
X187872400Y-80988420D01*
X187872399Y-80988422D01*
X187772570Y-81202507D01*
X187772567Y-81202513D01*
X187715364Y-81415999D01*
X187715364Y-81416000D01*
X188612314Y-81416000D01*
X188586507Y-81456156D01*
X188546000Y-81594111D01*
X188546000Y-81737889D01*
X188586507Y-81875844D01*
X188612314Y-81916000D01*
X187715364Y-81916000D01*
X187772567Y-82129486D01*
X187772570Y-82129492D01*
X187872399Y-82343578D01*
X188007894Y-82537082D01*
X188174917Y-82704105D01*
X188360595Y-82834119D01*
X188404219Y-82888696D01*
X188411412Y-82958195D01*
X188379890Y-83020549D01*
X188360595Y-83037269D01*
X188174594Y-83167508D01*
X188007505Y-83334597D01*
X187871965Y-83528169D01*
X187871964Y-83528171D01*
X187772098Y-83742335D01*
X187772094Y-83742344D01*
X187710938Y-83970586D01*
X187710936Y-83970596D01*
X187690341Y-84205999D01*
X187690341Y-84206001D01*
X187707112Y-84397693D01*
X187693345Y-84466193D01*
X187644730Y-84516376D01*
X187583584Y-84532500D01*
X185728994Y-84532500D01*
X185661955Y-84512815D01*
X185616200Y-84460011D01*
X185606055Y-84424684D01*
X185597045Y-84356246D01*
X185597044Y-84356238D01*
X185544941Y-84230452D01*
X185537473Y-84160983D01*
X185544942Y-84135547D01*
X185597044Y-84009762D01*
X185612500Y-83892361D01*
X185612499Y-83553640D01*
X185610712Y-83540069D01*
X185597320Y-83438336D01*
X185608086Y-83369301D01*
X185609417Y-83366565D01*
X185622040Y-83341433D01*
X185662500Y-83170721D01*
X185662500Y-82494976D01*
X185682185Y-82427937D01*
X185690632Y-82416329D01*
X185747910Y-82346538D01*
X185753022Y-82336975D01*
X185840811Y-82172733D01*
X185840811Y-82172732D01*
X185840814Y-82172727D01*
X185898024Y-81984132D01*
X185917341Y-81788000D01*
X185898024Y-81591868D01*
X185840814Y-81403273D01*
X185840811Y-81403269D01*
X185840811Y-81403266D01*
X185747913Y-81229467D01*
X185747909Y-81229460D01*
X185622883Y-81077116D01*
X185470539Y-80952090D01*
X185470532Y-80952086D01*
X185296733Y-80859188D01*
X185296727Y-80859186D01*
X185108132Y-80801976D01*
X185108129Y-80801975D01*
X184912000Y-80782659D01*
X184715870Y-80801975D01*
X184527266Y-80859188D01*
X184353467Y-80952086D01*
X184353460Y-80952090D01*
X184201116Y-81077116D01*
X184076090Y-81229460D01*
X184076086Y-81229467D01*
X183983188Y-81403266D01*
X183925975Y-81591870D01*
X183906659Y-81788000D01*
X183925975Y-81984129D01*
X183925976Y-81984132D01*
X183981145Y-82166000D01*
X183983188Y-82172733D01*
X184076084Y-82346529D01*
X184076087Y-82346533D01*
X184076090Y-82346538D01*
X184133354Y-82416314D01*
X184160666Y-82480620D01*
X184161500Y-82494976D01*
X184161500Y-83126709D01*
X184169512Y-83195254D01*
X184176759Y-83257258D01*
X184220548Y-83377568D01*
X184226965Y-83436161D01*
X184219465Y-83493132D01*
X184191199Y-83557029D01*
X184132875Y-83595501D01*
X184063010Y-83596333D01*
X184003787Y-83559261D01*
X183989794Y-83540069D01*
X183982756Y-83528169D01*
X183904081Y-83395135D01*
X183904079Y-83395133D01*
X183904076Y-83395129D01*
X183787870Y-83278923D01*
X183787862Y-83278917D01*
X183646396Y-83195255D01*
X183646393Y-83195254D01*
X183488573Y-83149402D01*
X183488567Y-83149401D01*
X183451696Y-83146500D01*
X183451694Y-83146500D01*
X183439500Y-83146500D01*
X183372461Y-83126815D01*
X183326706Y-83074011D01*
X183315500Y-83022500D01*
X183315500Y-82506298D01*
X183315500Y-82506297D01*
X183315500Y-82506291D01*
X183300241Y-82375745D01*
X183290259Y-82348320D01*
X183283842Y-82322095D01*
X183280044Y-82293238D01*
X183219536Y-82147159D01*
X183123282Y-82021718D01*
X183123280Y-82021717D01*
X183123280Y-82021716D01*
X182997840Y-81925463D01*
X182953579Y-81907129D01*
X182946299Y-81903539D01*
X182864282Y-81856188D01*
X182864281Y-81856187D01*
X182696218Y-81805872D01*
X182696212Y-81805870D01*
X182696210Y-81805870D01*
X182696209Y-81805869D01*
X182696205Y-81805869D01*
X182521066Y-81795669D01*
X182521065Y-81795669D01*
X182463220Y-81805869D01*
X182348288Y-81826135D01*
X182277907Y-81856493D01*
X182212609Y-81865572D01*
X182125000Y-81854037D01*
X182124999Y-81854038D01*
X182124999Y-81869809D01*
X182105313Y-81936848D01*
X182076487Y-81968181D01*
X182006720Y-82021715D01*
X182006717Y-82021718D01*
X182006718Y-82021718D01*
X181947374Y-82099056D01*
X181890948Y-82140257D01*
X181821202Y-82144412D01*
X181760281Y-82110199D01*
X181727529Y-82048482D01*
X181725000Y-82023568D01*
X181725000Y-81854038D01*
X181638369Y-81865444D01*
X181638365Y-81865445D01*
X181492413Y-81925899D01*
X181367075Y-82022075D01*
X181270899Y-82147413D01*
X181210444Y-82293368D01*
X181202987Y-82350000D01*
X181690500Y-82350000D01*
X181757539Y-82369685D01*
X181803294Y-82422489D01*
X181814500Y-82474000D01*
X181814500Y-82626000D01*
X181794815Y-82693039D01*
X181742011Y-82738794D01*
X181690500Y-82750000D01*
X181202990Y-82750000D01*
X181202988Y-82750001D01*
X181210442Y-82806627D01*
X181210444Y-82806633D01*
X181270899Y-82952585D01*
X181367079Y-83077929D01*
X181368096Y-83078946D01*
X181368679Y-83080014D01*
X181372023Y-83084372D01*
X181371343Y-83084893D01*
X181401581Y-83140269D01*
X181396597Y-83209961D01*
X181354725Y-83265894D01*
X181343536Y-83273359D01*
X181334138Y-83278916D01*
X181334129Y-83278923D01*
X181217923Y-83395129D01*
X181217917Y-83395137D01*
X181134255Y-83536603D01*
X181134254Y-83536606D01*
X181088402Y-83694426D01*
X181088401Y-83694432D01*
X181085500Y-83731304D01*
X181085500Y-84162696D01*
X181088401Y-84199567D01*
X181088402Y-84199573D01*
X181134254Y-84357393D01*
X181134255Y-84357396D01*
X181134256Y-84357398D01*
X181158086Y-84397693D01*
X181217917Y-84498862D01*
X181222702Y-84505031D01*
X181220248Y-84506933D01*
X181246844Y-84555578D01*
X181241895Y-84625273D01*
X181221074Y-84657706D01*
X181222702Y-84658969D01*
X181217917Y-84665137D01*
X181134255Y-84806603D01*
X181134254Y-84806606D01*
X181088402Y-84964426D01*
X181088401Y-84964432D01*
X181085500Y-85001304D01*
X181085500Y-85432696D01*
X181088401Y-85469567D01*
X181088402Y-85469573D01*
X181123922Y-85591832D01*
X181123723Y-85661702D01*
X181085781Y-85720372D01*
X181022142Y-85749215D01*
X180953012Y-85739074D01*
X180946393Y-85735785D01*
X180851733Y-85685188D01*
X180851727Y-85685186D01*
X180664909Y-85628515D01*
X180663129Y-85627975D01*
X180467000Y-85608659D01*
X180270870Y-85627975D01*
X180082266Y-85685188D01*
X179908467Y-85778086D01*
X179908460Y-85778090D01*
X179756116Y-85903116D01*
X179631090Y-86055460D01*
X179631086Y-86055467D01*
X179538188Y-86229266D01*
X179480975Y-86417870D01*
X179461659Y-86614000D01*
X179461659Y-86614002D01*
X179461889Y-86616340D01*
X179461659Y-86617552D01*
X179461659Y-86620092D01*
X179461177Y-86620092D01*
X179448865Y-86684985D01*
X179400796Y-86735692D01*
X179332944Y-86752361D01*
X179326340Y-86751889D01*
X179324003Y-86751659D01*
X179324000Y-86751659D01*
X179177159Y-86766121D01*
X179108513Y-86753102D01*
X179087281Y-86737000D01*
X176138705Y-86737000D01*
X176138704Y-86737001D01*
X176138899Y-86739486D01*
X176184718Y-86897198D01*
X176268314Y-87038552D01*
X176273100Y-87044722D01*
X176270640Y-87046629D01*
X176297210Y-87095288D01*
X176292226Y-87164980D01*
X176271162Y-87197781D01*
X176272699Y-87198974D01*
X176267915Y-87205140D01*
X176184255Y-87346603D01*
X176184254Y-87346606D01*
X176138402Y-87504426D01*
X176138401Y-87504432D01*
X176135500Y-87541304D01*
X176135500Y-87972696D01*
X176138401Y-88009567D01*
X176138402Y-88009573D01*
X176184254Y-88167393D01*
X176184255Y-88167396D01*
X176251205Y-88280604D01*
X176267918Y-88308864D01*
X176267923Y-88308870D01*
X176384129Y-88425076D01*
X176384133Y-88425079D01*
X176384135Y-88425081D01*
X176525602Y-88508744D01*
X176550336Y-88515930D01*
X176683426Y-88554597D01*
X176683429Y-88554597D01*
X176683431Y-88554598D01*
X176695722Y-88555565D01*
X176720304Y-88557500D01*
X176720306Y-88557500D01*
X178501696Y-88557500D01*
X178520131Y-88556049D01*
X178538569Y-88554598D01*
X178608915Y-88534160D01*
X178678780Y-88534358D01*
X178722172Y-88557383D01*
X178739367Y-88571494D01*
X178765459Y-88592908D01*
X178765467Y-88592913D01*
X178859438Y-88643142D01*
X178909282Y-88692104D01*
X178924743Y-88760242D01*
X178900911Y-88825921D01*
X178845354Y-88868290D01*
X178800985Y-88876500D01*
X173581783Y-88876500D01*
X173514744Y-88856815D01*
X173494102Y-88840181D01*
X173107818Y-88453897D01*
X173074333Y-88392574D01*
X173071499Y-88366216D01*
X173071499Y-87484129D01*
X173071498Y-87484123D01*
X173071497Y-87484116D01*
X173065091Y-87424517D01*
X173064835Y-87423831D01*
X173014797Y-87289671D01*
X173014793Y-87289664D01*
X172928547Y-87174455D01*
X172928544Y-87174452D01*
X172813335Y-87088206D01*
X172813328Y-87088202D01*
X172678482Y-87037908D01*
X172678483Y-87037908D01*
X172618883Y-87031501D01*
X172618881Y-87031500D01*
X172618873Y-87031500D01*
X172618864Y-87031500D01*
X170023129Y-87031500D01*
X170023123Y-87031501D01*
X169963516Y-87037908D01*
X169828671Y-87088202D01*
X169828664Y-87088206D01*
X169713455Y-87174452D01*
X169713452Y-87174455D01*
X169627206Y-87289664D01*
X169627202Y-87289671D01*
X169576908Y-87424517D01*
X169573741Y-87453978D01*
X169570501Y-87484123D01*
X169570500Y-87484135D01*
X169570500Y-88679870D01*
X169570501Y-88679879D01*
X169572214Y-88695811D01*
X169559807Y-88764570D01*
X169512195Y-88815706D01*
X169444496Y-88832984D01*
X169438686Y-88832640D01*
X169430966Y-88832000D01*
X168821000Y-88832000D01*
X168821000Y-89832000D01*
X168321000Y-89832000D01*
X168321000Y-88832000D01*
X167711035Y-88832000D01*
X167531523Y-88846874D01*
X167298571Y-88905865D01*
X167078509Y-89002393D01*
X166877342Y-89133823D01*
X166877338Y-89133826D01*
X166700544Y-89296577D01*
X166552947Y-89486209D01*
X166438578Y-89697544D01*
X166438576Y-89697550D01*
X166360553Y-89924823D01*
X166342669Y-90031999D01*
X166342670Y-90032000D01*
X167395722Y-90032000D01*
X167347375Y-90115740D01*
X167317190Y-90247992D01*
X167327327Y-90383265D01*
X167376887Y-90509541D01*
X167394797Y-90532000D01*
X166342669Y-90532000D01*
X166360553Y-90639176D01*
X166438576Y-90866449D01*
X166438578Y-90866455D01*
X166552947Y-91077790D01*
X166700544Y-91267422D01*
X166877338Y-91430173D01*
X166877342Y-91430176D01*
X167078509Y-91561606D01*
X167298571Y-91658134D01*
X167531523Y-91717125D01*
X167711035Y-91732000D01*
X168321000Y-91732000D01*
X168321000Y-90732000D01*
X168821000Y-90732000D01*
X168821000Y-91732000D01*
X169430965Y-91732000D01*
X169610476Y-91717125D01*
X169843428Y-91658134D01*
X170063490Y-91561606D01*
X170264657Y-91430176D01*
X170264661Y-91430173D01*
X170441455Y-91267422D01*
X170589052Y-91077790D01*
X170703421Y-90866455D01*
X170703423Y-90866449D01*
X170781446Y-90639176D01*
X170799331Y-90532000D01*
X169746278Y-90532000D01*
X169794625Y-90448260D01*
X169824810Y-90316008D01*
X169814673Y-90180735D01*
X169765113Y-90054459D01*
X169747203Y-90032000D01*
X170799330Y-90032000D01*
X170799330Y-90031999D01*
X170781446Y-89924823D01*
X170703423Y-89697550D01*
X170703421Y-89697544D01*
X170589052Y-89486209D01*
X170469541Y-89332661D01*
X170443899Y-89267667D01*
X170457466Y-89199127D01*
X170505934Y-89148802D01*
X170567393Y-89132499D01*
X170905216Y-89132499D01*
X170972255Y-89152184D01*
X170992896Y-89168818D01*
X172399566Y-90575487D01*
X172460941Y-90640053D01*
X172460944Y-90640055D01*
X172460947Y-90640058D01*
X172479456Y-90652940D01*
X172511295Y-90675100D01*
X172515050Y-90677932D01*
X172562593Y-90716698D01*
X172593045Y-90732604D01*
X172599756Y-90736671D01*
X172627951Y-90756295D01*
X172684332Y-90780490D01*
X172688567Y-90782501D01*
X172742951Y-90810909D01*
X172775973Y-90820356D01*
X172783365Y-90822989D01*
X172814940Y-90836539D01*
X172814941Y-90836540D01*
X172828054Y-90839234D01*
X172875055Y-90848892D01*
X172879595Y-90850006D01*
X172938582Y-90866886D01*
X172972841Y-90869494D01*
X172980609Y-90870585D01*
X173014255Y-90877500D01*
X173014259Y-90877500D01*
X173075601Y-90877500D01*
X173080308Y-90877678D01*
X173107597Y-90879757D01*
X173141475Y-90882337D01*
X173141475Y-90882336D01*
X173141476Y-90882337D01*
X173175559Y-90877996D01*
X173183389Y-90877500D01*
X182524259Y-90877500D01*
X188442284Y-90877500D01*
X188531358Y-90879757D01*
X188531358Y-90879756D01*
X188531363Y-90879757D01*
X188591753Y-90868932D01*
X188596412Y-90868280D01*
X188638607Y-90863988D01*
X188657438Y-90862074D01*
X188690227Y-90851786D01*
X188697840Y-90849918D01*
X188731653Y-90843858D01*
X188788621Y-90821101D01*
X188793053Y-90819524D01*
X188851588Y-90801159D01*
X188881627Y-90784484D01*
X188888708Y-90781122D01*
X188920617Y-90768377D01*
X188971854Y-90734608D01*
X188975851Y-90732187D01*
X189029502Y-90702409D01*
X189055568Y-90680030D01*
X189061843Y-90675300D01*
X189095773Y-90652940D01*
X189097230Y-90655151D01*
X189150879Y-90632525D01*
X189154078Y-90632203D01*
X189281408Y-90621063D01*
X189509663Y-90559903D01*
X189723830Y-90460035D01*
X189917401Y-90324495D01*
X190084495Y-90157401D01*
X190198925Y-89993977D01*
X190253502Y-89950353D01*
X190323000Y-89943159D01*
X190385355Y-89974682D01*
X190420769Y-90034912D01*
X190424500Y-90065101D01*
X190424500Y-92256500D01*
X190404815Y-92323539D01*
X190352011Y-92369294D01*
X190300500Y-92380500D01*
X165553500Y-92380500D01*
X165486461Y-92360815D01*
X165440706Y-92308011D01*
X165429500Y-92256500D01*
X165429500Y-86882003D01*
X167765435Y-86882003D01*
X167785630Y-87061249D01*
X167785631Y-87061254D01*
X167845211Y-87231523D01*
X167917521Y-87346603D01*
X167941184Y-87384262D01*
X168068738Y-87511816D01*
X168221478Y-87607789D01*
X168391745Y-87667367D01*
X168391745Y-87667368D01*
X168391750Y-87667369D01*
X168481235Y-87677451D01*
X168526040Y-87682499D01*
X168526043Y-87682500D01*
X168526046Y-87682500D01*
X168615957Y-87682500D01*
X168615958Y-87682499D01*
X168683104Y-87674934D01*
X168750249Y-87667369D01*
X168750252Y-87667368D01*
X168750255Y-87667368D01*
X168920522Y-87607789D01*
X169073262Y-87511816D01*
X169200816Y-87384262D01*
X169296789Y-87231522D01*
X169356368Y-87061255D01*
X169358926Y-87038552D01*
X169376565Y-86882003D01*
X169376565Y-86881996D01*
X169356369Y-86702750D01*
X169356368Y-86702745D01*
X169296789Y-86532478D01*
X169200816Y-86379738D01*
X169073262Y-86252184D01*
X169067937Y-86248838D01*
X168958176Y-86179870D01*
X169570500Y-86179870D01*
X169570501Y-86179876D01*
X169576908Y-86239483D01*
X169627202Y-86374328D01*
X169627206Y-86374335D01*
X169713452Y-86489544D01*
X169713455Y-86489547D01*
X169828664Y-86575793D01*
X169828671Y-86575797D01*
X169963517Y-86626091D01*
X169963516Y-86626091D01*
X169970444Y-86626835D01*
X170023127Y-86632500D01*
X172618872Y-86632499D01*
X172678483Y-86626091D01*
X172813331Y-86575796D01*
X172928546Y-86489546D01*
X173014796Y-86374331D01*
X173040739Y-86304772D01*
X173082611Y-86248838D01*
X173148075Y-86224421D01*
X173153013Y-86224166D01*
X173201024Y-86222658D01*
X173206063Y-86222500D01*
X173236296Y-86222500D01*
X173236301Y-86222500D01*
X173243406Y-86221602D01*
X173249235Y-86221143D01*
X173296994Y-86219643D01*
X173316917Y-86213854D01*
X173335969Y-86209908D01*
X173356553Y-86207309D01*
X173400989Y-86189714D01*
X173406513Y-86187824D01*
X173408895Y-86187131D01*
X173452396Y-86174494D01*
X173470253Y-86163933D01*
X173487719Y-86155376D01*
X173507017Y-86147736D01*
X173545693Y-86119634D01*
X173550557Y-86116440D01*
X173591688Y-86092117D01*
X173606362Y-86077441D01*
X173621145Y-86064815D01*
X173637938Y-86052616D01*
X173668411Y-86015779D01*
X173672322Y-86011481D01*
X174208985Y-85474819D01*
X174270309Y-85441334D01*
X174296667Y-85438500D01*
X175412833Y-85438500D01*
X175479872Y-85458185D01*
X175500514Y-85474819D01*
X175635915Y-85610220D01*
X175645892Y-85622672D01*
X175646092Y-85622507D01*
X175651060Y-85628513D01*
X175702709Y-85677015D01*
X175724094Y-85698399D01*
X175729757Y-85702792D01*
X175734199Y-85706586D01*
X175748880Y-85720372D01*
X175769030Y-85739294D01*
X175787212Y-85749289D01*
X175803469Y-85759968D01*
X175819866Y-85772687D01*
X175863731Y-85791669D01*
X175868952Y-85794226D01*
X175910841Y-85817255D01*
X175910845Y-85817256D01*
X175930930Y-85822413D01*
X175949345Y-85828718D01*
X175968381Y-85836956D01*
X175968382Y-85836956D01*
X175968384Y-85836957D01*
X176015583Y-85844432D01*
X176021297Y-85845615D01*
X176067585Y-85857500D01*
X176088333Y-85857500D01*
X176107717Y-85859024D01*
X176115663Y-85860283D01*
X176178798Y-85890206D01*
X176215735Y-85949514D01*
X176214743Y-86019377D01*
X176203007Y-86045877D01*
X176184718Y-86076802D01*
X176138899Y-86234513D01*
X176138704Y-86236998D01*
X176138705Y-86237000D01*
X179083295Y-86237000D01*
X179083295Y-86236998D01*
X179083100Y-86234513D01*
X179037281Y-86076801D01*
X178953685Y-85935447D01*
X178948900Y-85929278D01*
X178951366Y-85927364D01*
X178924802Y-85878776D01*
X178929749Y-85809082D01*
X178950856Y-85776232D01*
X178949301Y-85775026D01*
X178954077Y-85768868D01*
X178954081Y-85768865D01*
X179037744Y-85627398D01*
X179083598Y-85469569D01*
X179086500Y-85432694D01*
X179086500Y-85001306D01*
X179083598Y-84964431D01*
X179080832Y-84954912D01*
X179037745Y-84806606D01*
X179037744Y-84806603D01*
X179037744Y-84806602D01*
X178954081Y-84665135D01*
X178954078Y-84665132D01*
X178949298Y-84658969D01*
X178951750Y-84657066D01*
X178925155Y-84608421D01*
X178930104Y-84538726D01*
X178950940Y-84506304D01*
X178949298Y-84505031D01*
X178954075Y-84498870D01*
X178954081Y-84498865D01*
X179037744Y-84357398D01*
X179083598Y-84199569D01*
X179086500Y-84162694D01*
X179086500Y-83731306D01*
X179083598Y-83694431D01*
X179037744Y-83536602D01*
X178954081Y-83395135D01*
X178954079Y-83395133D01*
X178954076Y-83395129D01*
X178837870Y-83278923D01*
X178837862Y-83278917D01*
X178696396Y-83195255D01*
X178696393Y-83195254D01*
X178538573Y-83149402D01*
X178538567Y-83149401D01*
X178501696Y-83146500D01*
X178501694Y-83146500D01*
X176720306Y-83146500D01*
X176720304Y-83146500D01*
X176683432Y-83149401D01*
X176683426Y-83149402D01*
X176525606Y-83195254D01*
X176525603Y-83195255D01*
X176384136Y-83278917D01*
X176382124Y-83280479D01*
X176380257Y-83281211D01*
X176377420Y-83282890D01*
X176377149Y-83282432D01*
X176317088Y-83306014D01*
X176306123Y-83306500D01*
X176232896Y-83306500D01*
X176217039Y-83304749D01*
X176217015Y-83305009D01*
X176209254Y-83304275D01*
X176138451Y-83306500D01*
X176108195Y-83306500D01*
X176101078Y-83307398D01*
X176095261Y-83307856D01*
X176047505Y-83309357D01*
X176047504Y-83309358D01*
X176027584Y-83315145D01*
X176008532Y-83319090D01*
X175987950Y-83321689D01*
X175987949Y-83321689D01*
X175943514Y-83339282D01*
X175937988Y-83341174D01*
X175892106Y-83354504D01*
X175892104Y-83354505D01*
X175874248Y-83365065D01*
X175856778Y-83373624D01*
X175837485Y-83381262D01*
X175798814Y-83409358D01*
X175793931Y-83412565D01*
X175752813Y-83436882D01*
X175738142Y-83451553D01*
X175723356Y-83464181D01*
X175706563Y-83476382D01*
X175706558Y-83476387D01*
X175676095Y-83513210D01*
X175672163Y-83517531D01*
X175640058Y-83549637D01*
X175500513Y-83689182D01*
X175439193Y-83722666D01*
X175412834Y-83725500D01*
X174296666Y-83725500D01*
X174229627Y-83705815D01*
X174208985Y-83689181D01*
X173708586Y-83188782D01*
X173698614Y-83176334D01*
X173698414Y-83176501D01*
X173693437Y-83170485D01*
X173641774Y-83121969D01*
X173620403Y-83100599D01*
X173617354Y-83098234D01*
X173614744Y-83096210D01*
X173610303Y-83092417D01*
X173575471Y-83059706D01*
X173575469Y-83059705D01*
X173557289Y-83049710D01*
X173541028Y-83039029D01*
X173524634Y-83026312D01*
X173480767Y-83007329D01*
X173475520Y-83004758D01*
X173464467Y-82998681D01*
X173433659Y-82981745D01*
X173433656Y-82981744D01*
X173413563Y-82976585D01*
X173395159Y-82970284D01*
X173376115Y-82962043D01*
X173376113Y-82962042D01*
X173376112Y-82962042D01*
X173328915Y-82954567D01*
X173323195Y-82953382D01*
X173276915Y-82941500D01*
X173276911Y-82941500D01*
X173256167Y-82941500D01*
X173236769Y-82939973D01*
X173228678Y-82938691D01*
X173216281Y-82936728D01*
X173216280Y-82936728D01*
X173168704Y-82941225D01*
X173162868Y-82941500D01*
X173157521Y-82941500D01*
X173090482Y-82921815D01*
X173044727Y-82869011D01*
X173041339Y-82860833D01*
X173014797Y-82789671D01*
X173014793Y-82789664D01*
X172928547Y-82674455D01*
X172928544Y-82674452D01*
X172813335Y-82588206D01*
X172813328Y-82588202D01*
X172678482Y-82537908D01*
X172678483Y-82537908D01*
X172618883Y-82531501D01*
X172618881Y-82531500D01*
X172618873Y-82531500D01*
X172618864Y-82531500D01*
X170023129Y-82531500D01*
X170023123Y-82531501D01*
X169963516Y-82537908D01*
X169828671Y-82588202D01*
X169828664Y-82588206D01*
X169713455Y-82674452D01*
X169713452Y-82674455D01*
X169627206Y-82789664D01*
X169627202Y-82789671D01*
X169576908Y-82924517D01*
X169570501Y-82984116D01*
X169570500Y-82984135D01*
X169570500Y-84179870D01*
X169570501Y-84179876D01*
X169576908Y-84239483D01*
X169627202Y-84374328D01*
X169627206Y-84374335D01*
X169713452Y-84489544D01*
X169718227Y-84494319D01*
X169751712Y-84555642D01*
X169746728Y-84625334D01*
X169718227Y-84669681D01*
X169713452Y-84674455D01*
X169627206Y-84789664D01*
X169627202Y-84789671D01*
X169576908Y-84924517D01*
X169570501Y-84984116D01*
X169570500Y-84984135D01*
X169570500Y-86179870D01*
X168958176Y-86179870D01*
X168920523Y-86156211D01*
X168750254Y-86096631D01*
X168750249Y-86096630D01*
X168615960Y-86081500D01*
X168615954Y-86081500D01*
X168526046Y-86081500D01*
X168526039Y-86081500D01*
X168391750Y-86096630D01*
X168391745Y-86096631D01*
X168221476Y-86156211D01*
X168068737Y-86252184D01*
X167941184Y-86379737D01*
X167845211Y-86532476D01*
X167785631Y-86702745D01*
X167785630Y-86702750D01*
X167765435Y-86881996D01*
X167765435Y-86882003D01*
X165429500Y-86882003D01*
X165429500Y-82282003D01*
X167765435Y-82282003D01*
X167785630Y-82461249D01*
X167785631Y-82461254D01*
X167845211Y-82631523D01*
X167919656Y-82750000D01*
X167941184Y-82784262D01*
X168068738Y-82911816D01*
X168221478Y-83007789D01*
X168369848Y-83059706D01*
X168391745Y-83067368D01*
X168391750Y-83067369D01*
X168482246Y-83077565D01*
X168526040Y-83082499D01*
X168526043Y-83082500D01*
X168526046Y-83082500D01*
X168615957Y-83082500D01*
X168615958Y-83082499D01*
X168683104Y-83074934D01*
X168750249Y-83067369D01*
X168750252Y-83067368D01*
X168750255Y-83067368D01*
X168920522Y-83007789D01*
X169073262Y-82911816D01*
X169200816Y-82784262D01*
X169296789Y-82631522D01*
X169356368Y-82461255D01*
X169357568Y-82450609D01*
X169376565Y-82282003D01*
X169376565Y-82281996D01*
X169356369Y-82102750D01*
X169356368Y-82102745D01*
X169346782Y-82075350D01*
X169296789Y-81932478D01*
X169278605Y-81903539D01*
X169210826Y-81795669D01*
X169200816Y-81779738D01*
X169073262Y-81652184D01*
X168920523Y-81556211D01*
X168750254Y-81496631D01*
X168750249Y-81496630D01*
X168615960Y-81481500D01*
X168615954Y-81481500D01*
X168526046Y-81481500D01*
X168526039Y-81481500D01*
X168391750Y-81496630D01*
X168391745Y-81496631D01*
X168221476Y-81556211D01*
X168068737Y-81652184D01*
X167941184Y-81779737D01*
X167845211Y-81932476D01*
X167785631Y-82102745D01*
X167785630Y-82102750D01*
X167765435Y-82281996D01*
X167765435Y-82282003D01*
X165429500Y-82282003D01*
X165429500Y-81332000D01*
X169571000Y-81332000D01*
X169571000Y-81679844D01*
X169577401Y-81739372D01*
X169577403Y-81739379D01*
X169627645Y-81874086D01*
X169627649Y-81874093D01*
X169713809Y-81989187D01*
X169713812Y-81989190D01*
X169828906Y-82075350D01*
X169828913Y-82075354D01*
X169963620Y-82125596D01*
X169963627Y-82125598D01*
X170023155Y-82131999D01*
X170023172Y-82132000D01*
X171071000Y-82132000D01*
X171071000Y-81332000D01*
X171571000Y-81332000D01*
X171571000Y-82132000D01*
X172618828Y-82132000D01*
X172618844Y-82131999D01*
X172678372Y-82125598D01*
X172678379Y-82125596D01*
X172813086Y-82075354D01*
X172813093Y-82075350D01*
X172928187Y-81989190D01*
X172928190Y-81989187D01*
X173014350Y-81874093D01*
X173014354Y-81874086D01*
X173064596Y-81739379D01*
X173064598Y-81739372D01*
X173070999Y-81679844D01*
X173071000Y-81679827D01*
X173071000Y-81332000D01*
X171571000Y-81332000D01*
X171071000Y-81332000D01*
X169571000Y-81332000D01*
X165429500Y-81332000D01*
X165429500Y-79132000D01*
X166342669Y-79132000D01*
X166360553Y-79239176D01*
X166438576Y-79466449D01*
X166438578Y-79466455D01*
X166552947Y-79677790D01*
X166700544Y-79867422D01*
X166877338Y-80030173D01*
X166877342Y-80030176D01*
X167078509Y-80161606D01*
X167298571Y-80258134D01*
X167531523Y-80317125D01*
X167711035Y-80332000D01*
X168321000Y-80332000D01*
X168321000Y-79332000D01*
X168821000Y-79332000D01*
X168821000Y-80332000D01*
X169430961Y-80332000D01*
X169439184Y-80331318D01*
X169507621Y-80345395D01*
X169557583Y-80394237D01*
X169573208Y-80462337D01*
X169572722Y-80468145D01*
X169571000Y-80484161D01*
X169571000Y-80832000D01*
X171071000Y-80832000D01*
X171071000Y-80032000D01*
X171571000Y-80032000D01*
X171571000Y-80832000D01*
X173071000Y-80832000D01*
X173071000Y-80484172D01*
X173070999Y-80484155D01*
X173064598Y-80424627D01*
X173064596Y-80424620D01*
X173014354Y-80289913D01*
X173014350Y-80289906D01*
X172928190Y-80174812D01*
X172928187Y-80174809D01*
X172813093Y-80088649D01*
X172813086Y-80088645D01*
X172678379Y-80038403D01*
X172678372Y-80038401D01*
X172618844Y-80032000D01*
X171571000Y-80032000D01*
X171071000Y-80032000D01*
X170567006Y-80032000D01*
X170499967Y-80012315D01*
X170454212Y-79959511D01*
X170444268Y-79890353D01*
X170469153Y-79831838D01*
X170589048Y-79677796D01*
X170589051Y-79677792D01*
X170703421Y-79466455D01*
X170703423Y-79466449D01*
X170781446Y-79239176D01*
X170799331Y-79132000D01*
X169746278Y-79132000D01*
X169794625Y-79048260D01*
X169824810Y-78916008D01*
X169814673Y-78780735D01*
X169765113Y-78654459D01*
X169747203Y-78632000D01*
X170799330Y-78632000D01*
X170799330Y-78631999D01*
X170781446Y-78524823D01*
X170703423Y-78297550D01*
X170703421Y-78297544D01*
X170589052Y-78086209D01*
X170441455Y-77896577D01*
X170264661Y-77733826D01*
X170264657Y-77733823D01*
X170063490Y-77602393D01*
X169843428Y-77505865D01*
X169610476Y-77446874D01*
X169430965Y-77432000D01*
X168821000Y-77432000D01*
X168821000Y-78432000D01*
X168321000Y-78432000D01*
X168321000Y-77432000D01*
X167711035Y-77432000D01*
X167531523Y-77446874D01*
X167298571Y-77505865D01*
X167078509Y-77602393D01*
X166877342Y-77733823D01*
X166877338Y-77733826D01*
X166700544Y-77896577D01*
X166552947Y-78086209D01*
X166438578Y-78297544D01*
X166438576Y-78297550D01*
X166360553Y-78524823D01*
X166342669Y-78631999D01*
X166342670Y-78632000D01*
X167395722Y-78632000D01*
X167347375Y-78715740D01*
X167317190Y-78847992D01*
X167327327Y-78983265D01*
X167376887Y-79109541D01*
X167394797Y-79132000D01*
X166342669Y-79132000D01*
X165429500Y-79132000D01*
X165429500Y-76526500D01*
X165449185Y-76459461D01*
X165501989Y-76413706D01*
X165553500Y-76402500D01*
X190300500Y-76402500D01*
X190367539Y-76422185D01*
G37*
G04 #@! TD.AperFunction*
M02*
