G04 #@! TF.GenerationSoftware,KiCad,Pcbnew,7.0.6*
G04 #@! TF.CreationDate,2023-08-23T21:48:07+08:00*
G04 #@! TF.ProjectId,USB_TTL,5553425f-5454-44c2-9e6b-696361645f70,rev?*
G04 #@! TF.SameCoordinates,Original*
G04 #@! TF.FileFunction,Soldermask,Top*
G04 #@! TF.FilePolarity,Negative*
%FSLAX46Y46*%
G04 Gerber Fmt 4.6, Leading zero omitted, Abs format (unit mm)*
G04 Created by KiCad (PCBNEW 7.0.6) date 2023-08-23 21:48:07*
%MOMM*%
%LPD*%
G01*
G04 APERTURE LIST*
G04 APERTURE END LIST*
G36*
X169472168Y-89287131D02*
G01*
X169519586Y-89296875D01*
X169566042Y-89301451D01*
X169616855Y-89316864D01*
X169670363Y-89327861D01*
X169711983Y-89345721D01*
X169753591Y-89358343D01*
X169803252Y-89384887D01*
X169856302Y-89407653D01*
X169890917Y-89431746D01*
X169926433Y-89450730D01*
X169972449Y-89488494D01*
X170022372Y-89523242D01*
X170049273Y-89551542D01*
X170077935Y-89575064D01*
X170117750Y-89623579D01*
X170161776Y-89669894D01*
X170180775Y-89700376D01*
X170202269Y-89726566D01*
X170233387Y-89784783D01*
X170268805Y-89841606D01*
X170280187Y-89872339D01*
X170294656Y-89899408D01*
X170314770Y-89965717D01*
X170339077Y-90031347D01*
X170343564Y-90060638D01*
X170351548Y-90086957D01*
X170358662Y-90159193D01*
X170369717Y-90231351D01*
X170368375Y-90257806D01*
X170370758Y-90281999D01*
X170363315Y-90357560D01*
X170359468Y-90433428D01*
X170353618Y-90456020D01*
X170351548Y-90477042D01*
X170328521Y-90552951D01*
X170308752Y-90629305D01*
X170299862Y-90647427D01*
X170294656Y-90664591D01*
X170255623Y-90737615D01*
X170219644Y-90810964D01*
X170209216Y-90824435D01*
X170202269Y-90837433D01*
X170147463Y-90904214D01*
X170095793Y-90970967D01*
X170085260Y-90980008D01*
X170077935Y-90988935D01*
X170008141Y-91046212D01*
X169942268Y-91102763D01*
X169932896Y-91107964D01*
X169926433Y-91113269D01*
X169842821Y-91157960D01*
X169765356Y-91200958D01*
X169758151Y-91203218D01*
X169753591Y-91205656D01*
X169656858Y-91234999D01*
X169572299Y-91261530D01*
X169567934Y-91261973D01*
X169566042Y-91262548D01*
X169446617Y-91274310D01*
X169371000Y-91282000D01*
X169368546Y-91282000D01*
X167773454Y-91282000D01*
X167771000Y-91282000D01*
X167669832Y-91276869D01*
X167622407Y-91267123D01*
X167575957Y-91262548D01*
X167525152Y-91247136D01*
X167471637Y-91236139D01*
X167430011Y-91218276D01*
X167388408Y-91205656D01*
X167338752Y-91179114D01*
X167285698Y-91156347D01*
X167251079Y-91132251D01*
X167215566Y-91113269D01*
X167169551Y-91075506D01*
X167119628Y-91040758D01*
X167092725Y-91012456D01*
X167064064Y-90988935D01*
X167024248Y-90940419D01*
X166980224Y-90894106D01*
X166961224Y-90863624D01*
X166939730Y-90837433D01*
X166908609Y-90779211D01*
X166873195Y-90722394D01*
X166861813Y-90691663D01*
X166847343Y-90664591D01*
X166827225Y-90598271D01*
X166802923Y-90532653D01*
X166798436Y-90503366D01*
X166790451Y-90477042D01*
X166783334Y-90404790D01*
X166772283Y-90332649D01*
X166773624Y-90306199D01*
X166771241Y-90281999D01*
X166778685Y-90206415D01*
X166782532Y-90130572D01*
X166788379Y-90107986D01*
X166790451Y-90086957D01*
X166813486Y-90011019D01*
X166833248Y-89934695D01*
X166842134Y-89916579D01*
X166847343Y-89899408D01*
X166886393Y-89826349D01*
X166922356Y-89753036D01*
X166932778Y-89739571D01*
X166939730Y-89726566D01*
X166994567Y-89659746D01*
X167046207Y-89593033D01*
X167056733Y-89583996D01*
X167064064Y-89575064D01*
X167133906Y-89517746D01*
X167199732Y-89461237D01*
X167209096Y-89456038D01*
X167215566Y-89450730D01*
X167299253Y-89405997D01*
X167376644Y-89363042D01*
X167383841Y-89360783D01*
X167388408Y-89358343D01*
X167485266Y-89328961D01*
X167569701Y-89302470D01*
X167574058Y-89302026D01*
X167575957Y-89301451D01*
X167695518Y-89289675D01*
X167771000Y-89282000D01*
X169371000Y-89282000D01*
X169472168Y-89287131D01*
G37*
G36*
X189093607Y-88390930D02*
G01*
X189140076Y-88390930D01*
X189180202Y-88399459D01*
X189221533Y-88403530D01*
X189273460Y-88419282D01*
X189324115Y-88430049D01*
X189356527Y-88444479D01*
X189390321Y-88454731D01*
X189444023Y-88483435D01*
X189496000Y-88506577D01*
X189520165Y-88524134D01*
X189545878Y-88537878D01*
X189598333Y-88580927D01*
X189648218Y-88617170D01*
X189664412Y-88635155D01*
X189682225Y-88649774D01*
X189730089Y-88708097D01*
X189774115Y-88756993D01*
X189783365Y-88773015D01*
X189794121Y-88786121D01*
X189833908Y-88860557D01*
X189868191Y-88919937D01*
X189872134Y-88932074D01*
X189877268Y-88941678D01*
X189905568Y-89034971D01*
X189926333Y-89098879D01*
X189927064Y-89105834D01*
X189928469Y-89110466D01*
X189942152Y-89249397D01*
X189946000Y-89286000D01*
X189942150Y-89322629D01*
X189928469Y-89461533D01*
X189927064Y-89466164D01*
X189926333Y-89473121D01*
X189905563Y-89537042D01*
X189877268Y-89630321D01*
X189872135Y-89639923D01*
X189868191Y-89652063D01*
X189833901Y-89711454D01*
X189794121Y-89785878D01*
X189783367Y-89798981D01*
X189774115Y-89815007D01*
X189730080Y-89863912D01*
X189682225Y-89922225D01*
X189664415Y-89936840D01*
X189648218Y-89954830D01*
X189598323Y-89991080D01*
X189545878Y-90034121D01*
X189520171Y-90047861D01*
X189496000Y-90065423D01*
X189444012Y-90088569D01*
X189390321Y-90117268D01*
X189356534Y-90127517D01*
X189324115Y-90141951D01*
X189273449Y-90152720D01*
X189221533Y-90168469D01*
X189180210Y-90172538D01*
X189140076Y-90181070D01*
X189093597Y-90181070D01*
X189046000Y-90185758D01*
X188998403Y-90181070D01*
X188951924Y-90181070D01*
X188911789Y-90172539D01*
X188870466Y-90168469D01*
X188818546Y-90152719D01*
X188767885Y-90141951D01*
X188735467Y-90127517D01*
X188701678Y-90117268D01*
X188647981Y-90088566D01*
X188596000Y-90065423D01*
X188571831Y-90047863D01*
X188546121Y-90034121D01*
X188493667Y-89991074D01*
X188443782Y-89954830D01*
X188427587Y-89936843D01*
X188409774Y-89922225D01*
X188361908Y-89863899D01*
X188317885Y-89815007D01*
X188308634Y-89798985D01*
X188297878Y-89785878D01*
X188258085Y-89711431D01*
X188223809Y-89652063D01*
X188219866Y-89639928D01*
X188214731Y-89630321D01*
X188186421Y-89536996D01*
X188165667Y-89473121D01*
X188164936Y-89466169D01*
X188163530Y-89461533D01*
X188149833Y-89322478D01*
X188146000Y-89286000D01*
X188149831Y-89249548D01*
X188163530Y-89110466D01*
X188164936Y-89105829D01*
X188165667Y-89098879D01*
X188186416Y-89035017D01*
X188214731Y-88941678D01*
X188219866Y-88932069D01*
X188223809Y-88919937D01*
X188258078Y-88860581D01*
X188297878Y-88786121D01*
X188308636Y-88773011D01*
X188317885Y-88756993D01*
X188361898Y-88708110D01*
X188409774Y-88649774D01*
X188427590Y-88635152D01*
X188443782Y-88617170D01*
X188493657Y-88580933D01*
X188546121Y-88537878D01*
X188571836Y-88524132D01*
X188596000Y-88506577D01*
X188647970Y-88483438D01*
X188701678Y-88454731D01*
X188735474Y-88444478D01*
X188767885Y-88430049D01*
X188818535Y-88419282D01*
X188870466Y-88403530D01*
X188911798Y-88399459D01*
X188951924Y-88390930D01*
X188998393Y-88390930D01*
X189046000Y-88386241D01*
X189093607Y-88390930D01*
G37*
G36*
X182112403Y-88788418D02*
G01*
X182161066Y-88820934D01*
X182193582Y-88869597D01*
X182204946Y-88926729D01*
X182285053Y-88926732D01*
X182296418Y-88869597D01*
X182328934Y-88820934D01*
X182377597Y-88788418D01*
X182435000Y-88777000D01*
X182695000Y-88777000D01*
X182752403Y-88788418D01*
X182801066Y-88820934D01*
X182833582Y-88869597D01*
X182845000Y-88927000D01*
X182845000Y-89127000D01*
X182833582Y-89184403D01*
X182801066Y-89233066D01*
X182752403Y-89265582D01*
X182695000Y-89277000D01*
X182435000Y-89277000D01*
X182377597Y-89265582D01*
X182328934Y-89233066D01*
X182296418Y-89184403D01*
X182285053Y-89127268D01*
X182204947Y-89127268D01*
X182193582Y-89184403D01*
X182161066Y-89233066D01*
X182112403Y-89265582D01*
X182055000Y-89277000D01*
X181795000Y-89277000D01*
X181737597Y-89265582D01*
X181688934Y-89233066D01*
X181656418Y-89184403D01*
X181645000Y-89127000D01*
X181645000Y-88927000D01*
X181656418Y-88869597D01*
X181688934Y-88820934D01*
X181737597Y-88788418D01*
X181795000Y-88777000D01*
X182055000Y-88777000D01*
X182112403Y-88788418D01*
G37*
G36*
X185069403Y-87803418D02*
G01*
X185118066Y-87835934D01*
X185150582Y-87884597D01*
X185162000Y-87942000D01*
X185162000Y-88202000D01*
X185150582Y-88259403D01*
X185118066Y-88308066D01*
X185069403Y-88340582D01*
X185012269Y-88351946D01*
X185012266Y-88432052D01*
X185069403Y-88443418D01*
X185118066Y-88475934D01*
X185150582Y-88524597D01*
X185162000Y-88582000D01*
X185162000Y-88842000D01*
X185150582Y-88899403D01*
X185118066Y-88948066D01*
X185069403Y-88980582D01*
X185012000Y-88992000D01*
X184812000Y-88992000D01*
X184754597Y-88980582D01*
X184705934Y-88948066D01*
X184673418Y-88899403D01*
X184662000Y-88842000D01*
X184662000Y-88582000D01*
X184673418Y-88524597D01*
X184705934Y-88475934D01*
X184754597Y-88443418D01*
X184811731Y-88432053D01*
X184811731Y-88351946D01*
X184754597Y-88340582D01*
X184705934Y-88308066D01*
X184673418Y-88259403D01*
X184662000Y-88202000D01*
X184662000Y-87942000D01*
X184673418Y-87884597D01*
X184705934Y-87835934D01*
X184754597Y-87803418D01*
X184812000Y-87792000D01*
X185012000Y-87792000D01*
X185069403Y-87803418D01*
G37*
G36*
X172590134Y-87485806D02*
G01*
X172606355Y-87496645D01*
X172617194Y-87512866D01*
X172621000Y-87532000D01*
X172621000Y-88632000D01*
X172617194Y-88651134D01*
X172606355Y-88667355D01*
X172590134Y-88678194D01*
X172571000Y-88682000D01*
X170071000Y-88682000D01*
X170051866Y-88678194D01*
X170035645Y-88667355D01*
X170024806Y-88651134D01*
X170021000Y-88632000D01*
X170021000Y-87532000D01*
X170024806Y-87512866D01*
X170035645Y-87496645D01*
X170051866Y-87485806D01*
X170071000Y-87482000D01*
X172571000Y-87482000D01*
X172590134Y-87485806D01*
G37*
G36*
X178512537Y-87422224D02*
G01*
X178577421Y-87465579D01*
X178620776Y-87530463D01*
X178636000Y-87607000D01*
X178636000Y-87907000D01*
X178620776Y-87983537D01*
X178577421Y-88048421D01*
X178512537Y-88091776D01*
X178436000Y-88107000D01*
X176786000Y-88107000D01*
X176709463Y-88091776D01*
X176644579Y-88048421D01*
X176601224Y-87983537D01*
X176586000Y-87907000D01*
X176586000Y-87607000D01*
X176601224Y-87530463D01*
X176644579Y-87465579D01*
X176709463Y-87422224D01*
X176786000Y-87407000D01*
X178436000Y-87407000D01*
X178512537Y-87422224D01*
G37*
G36*
X183462537Y-87422224D02*
G01*
X183527421Y-87465579D01*
X183570776Y-87530463D01*
X183586000Y-87607000D01*
X183586000Y-87907000D01*
X183570776Y-87983537D01*
X183527421Y-88048421D01*
X183462537Y-88091776D01*
X183386000Y-88107000D01*
X181736000Y-88107000D01*
X181659463Y-88091776D01*
X181594579Y-88048421D01*
X181551224Y-87983537D01*
X181536000Y-87907000D01*
X181536000Y-87607000D01*
X181551224Y-87530463D01*
X181594579Y-87465579D01*
X181659463Y-87422224D01*
X181736000Y-87407000D01*
X183386000Y-87407000D01*
X183462537Y-87422224D01*
G37*
G36*
X189093607Y-85850930D02*
G01*
X189140076Y-85850930D01*
X189180202Y-85859459D01*
X189221533Y-85863530D01*
X189273460Y-85879282D01*
X189324115Y-85890049D01*
X189356527Y-85904479D01*
X189390321Y-85914731D01*
X189444023Y-85943435D01*
X189496000Y-85966577D01*
X189520165Y-85984134D01*
X189545878Y-85997878D01*
X189598333Y-86040927D01*
X189648218Y-86077170D01*
X189664412Y-86095155D01*
X189682225Y-86109774D01*
X189730089Y-86168097D01*
X189774115Y-86216993D01*
X189783365Y-86233015D01*
X189794121Y-86246121D01*
X189833908Y-86320557D01*
X189868191Y-86379937D01*
X189872134Y-86392074D01*
X189877268Y-86401678D01*
X189905568Y-86494971D01*
X189926333Y-86558879D01*
X189927064Y-86565834D01*
X189928469Y-86570466D01*
X189942151Y-86709385D01*
X189946000Y-86746000D01*
X189942151Y-86782617D01*
X189928469Y-86921533D01*
X189927064Y-86926164D01*
X189926333Y-86933121D01*
X189905563Y-86997042D01*
X189877268Y-87090321D01*
X189872135Y-87099923D01*
X189868191Y-87112063D01*
X189833901Y-87171454D01*
X189794121Y-87245878D01*
X189783367Y-87258981D01*
X189774115Y-87275007D01*
X189730080Y-87323912D01*
X189682225Y-87382225D01*
X189664415Y-87396840D01*
X189648218Y-87414830D01*
X189598323Y-87451080D01*
X189545878Y-87494121D01*
X189520171Y-87507861D01*
X189496000Y-87525423D01*
X189444012Y-87548569D01*
X189390321Y-87577268D01*
X189356534Y-87587517D01*
X189324115Y-87601951D01*
X189273449Y-87612720D01*
X189221533Y-87628469D01*
X189180210Y-87632538D01*
X189140076Y-87641070D01*
X189093597Y-87641070D01*
X189046000Y-87645758D01*
X188998403Y-87641070D01*
X188951924Y-87641070D01*
X188911789Y-87632539D01*
X188870466Y-87628469D01*
X188818546Y-87612719D01*
X188767885Y-87601951D01*
X188735467Y-87587517D01*
X188701678Y-87577268D01*
X188647981Y-87548566D01*
X188596000Y-87525423D01*
X188571831Y-87507863D01*
X188546121Y-87494121D01*
X188493667Y-87451074D01*
X188443782Y-87414830D01*
X188427587Y-87396843D01*
X188409774Y-87382225D01*
X188361908Y-87323899D01*
X188317885Y-87275007D01*
X188308634Y-87258985D01*
X188297878Y-87245878D01*
X188258085Y-87171431D01*
X188223809Y-87112063D01*
X188219866Y-87099928D01*
X188214731Y-87090321D01*
X188186421Y-86996996D01*
X188165667Y-86933121D01*
X188164936Y-86926169D01*
X188163530Y-86921533D01*
X188149832Y-86782466D01*
X188146000Y-86746000D01*
X188149832Y-86709536D01*
X188163530Y-86570466D01*
X188164936Y-86565829D01*
X188165667Y-86558879D01*
X188186416Y-86495017D01*
X188214731Y-86401678D01*
X188219866Y-86392069D01*
X188223809Y-86379937D01*
X188258078Y-86320581D01*
X188297878Y-86246121D01*
X188308636Y-86233011D01*
X188317885Y-86216993D01*
X188361898Y-86168110D01*
X188409774Y-86109774D01*
X188427590Y-86095152D01*
X188443782Y-86077170D01*
X188493657Y-86040933D01*
X188546121Y-85997878D01*
X188571836Y-85984132D01*
X188596000Y-85966577D01*
X188647970Y-85943438D01*
X188701678Y-85914731D01*
X188735474Y-85904478D01*
X188767885Y-85890049D01*
X188818535Y-85879282D01*
X188870466Y-85863530D01*
X188911798Y-85859459D01*
X188951924Y-85850930D01*
X188998393Y-85850930D01*
X189046000Y-85846241D01*
X189093607Y-85850930D01*
G37*
G36*
X168606995Y-86286739D02*
G01*
X168643278Y-86286739D01*
X168684880Y-86296993D01*
X168726291Y-86302445D01*
X168754638Y-86314186D01*
X168783632Y-86321333D01*
X168827591Y-86344404D01*
X168871000Y-86362385D01*
X168890804Y-86377581D01*
X168911629Y-86388511D01*
X168954202Y-86426228D01*
X168995264Y-86457736D01*
X169006935Y-86472946D01*
X169019832Y-86484372D01*
X169056821Y-86537959D01*
X169090615Y-86582000D01*
X169095707Y-86594293D01*
X169101948Y-86603335D01*
X169129020Y-86674719D01*
X169150555Y-86726709D01*
X169151521Y-86734050D01*
X169153209Y-86738500D01*
X169166278Y-86846140D01*
X169171000Y-86882000D01*
X169166278Y-86917862D01*
X169153209Y-87025499D01*
X169151521Y-87029947D01*
X169150555Y-87037291D01*
X169129015Y-87089291D01*
X169101948Y-87160664D01*
X169095708Y-87169703D01*
X169090615Y-87182000D01*
X169056814Y-87226049D01*
X169019832Y-87279627D01*
X169006937Y-87291050D01*
X168995264Y-87306264D01*
X168954194Y-87337777D01*
X168911629Y-87375488D01*
X168890808Y-87386415D01*
X168871000Y-87401615D01*
X168827582Y-87419598D01*
X168783632Y-87442666D01*
X168754642Y-87449811D01*
X168726291Y-87461555D01*
X168684877Y-87467007D01*
X168643278Y-87477261D01*
X168606995Y-87477261D01*
X168571000Y-87482000D01*
X168535005Y-87477261D01*
X168498722Y-87477261D01*
X168457121Y-87467007D01*
X168415709Y-87461555D01*
X168387358Y-87449811D01*
X168358367Y-87442666D01*
X168314412Y-87419596D01*
X168271000Y-87401615D01*
X168251193Y-87386417D01*
X168230370Y-87375488D01*
X168187798Y-87337772D01*
X168146736Y-87306264D01*
X168135064Y-87291053D01*
X168122167Y-87279627D01*
X168085175Y-87226036D01*
X168051385Y-87182000D01*
X168046293Y-87169707D01*
X168040051Y-87160664D01*
X168012972Y-87089262D01*
X167991445Y-87037291D01*
X167990478Y-87029951D01*
X167988790Y-87025499D01*
X167975709Y-86917773D01*
X167971000Y-86882000D01*
X167975707Y-86846247D01*
X167988790Y-86738500D01*
X167990478Y-86734046D01*
X167991445Y-86726709D01*
X168012967Y-86674748D01*
X168040051Y-86603335D01*
X168046294Y-86594290D01*
X168051385Y-86582000D01*
X168085168Y-86537972D01*
X168122167Y-86484372D01*
X168135066Y-86472943D01*
X168146736Y-86457736D01*
X168187789Y-86426234D01*
X168230370Y-86388511D01*
X168251197Y-86377579D01*
X168271000Y-86362385D01*
X168314403Y-86344406D01*
X168358367Y-86321333D01*
X168387363Y-86314186D01*
X168415709Y-86302445D01*
X168457118Y-86296993D01*
X168498722Y-86286739D01*
X168535005Y-86286739D01*
X168571000Y-86282000D01*
X168606995Y-86286739D01*
G37*
G36*
X185069403Y-86279418D02*
G01*
X185118066Y-86311934D01*
X185150582Y-86360597D01*
X185162000Y-86418000D01*
X185162000Y-86678000D01*
X185150582Y-86735403D01*
X185118066Y-86784066D01*
X185069403Y-86816582D01*
X185012269Y-86827946D01*
X185012266Y-86908052D01*
X185069403Y-86919418D01*
X185118066Y-86951934D01*
X185150582Y-87000597D01*
X185162000Y-87058000D01*
X185162000Y-87318000D01*
X185150582Y-87375403D01*
X185118066Y-87424066D01*
X185069403Y-87456582D01*
X185012000Y-87468000D01*
X184812000Y-87468000D01*
X184754597Y-87456582D01*
X184705934Y-87424066D01*
X184673418Y-87375403D01*
X184662000Y-87318000D01*
X184662000Y-87058000D01*
X184673418Y-87000597D01*
X184705934Y-86951934D01*
X184754597Y-86919418D01*
X184811731Y-86908053D01*
X184811731Y-86827946D01*
X184754597Y-86816582D01*
X184705934Y-86784066D01*
X184673418Y-86735403D01*
X184662000Y-86678000D01*
X184662000Y-86418000D01*
X184673418Y-86360597D01*
X184705934Y-86311934D01*
X184754597Y-86279418D01*
X184812000Y-86268000D01*
X185012000Y-86268000D01*
X185069403Y-86279418D01*
G37*
G36*
X178512537Y-86152224D02*
G01*
X178577421Y-86195579D01*
X178620776Y-86260463D01*
X178636000Y-86337000D01*
X178636000Y-86637000D01*
X178620776Y-86713537D01*
X178577421Y-86778421D01*
X178512537Y-86821776D01*
X178436000Y-86837000D01*
X176786000Y-86837000D01*
X176709463Y-86821776D01*
X176644579Y-86778421D01*
X176601224Y-86713537D01*
X176586000Y-86637000D01*
X176586000Y-86337000D01*
X176601224Y-86260463D01*
X176644579Y-86195579D01*
X176709463Y-86152224D01*
X176786000Y-86137000D01*
X178436000Y-86137000D01*
X178512537Y-86152224D01*
G37*
G36*
X183462537Y-86152224D02*
G01*
X183527421Y-86195579D01*
X183570776Y-86260463D01*
X183586000Y-86337000D01*
X183586000Y-86637000D01*
X183570776Y-86713537D01*
X183527421Y-86778421D01*
X183462537Y-86821776D01*
X183386000Y-86837000D01*
X181736000Y-86837000D01*
X181659463Y-86821776D01*
X181594579Y-86778421D01*
X181551224Y-86713537D01*
X181536000Y-86637000D01*
X181536000Y-86337000D01*
X181551224Y-86260463D01*
X181594579Y-86195579D01*
X181659463Y-86152224D01*
X181736000Y-86137000D01*
X183386000Y-86137000D01*
X183462537Y-86152224D01*
G37*
G36*
X172590134Y-84985806D02*
G01*
X172606355Y-84996645D01*
X172617194Y-85012866D01*
X172621000Y-85032000D01*
X172621000Y-86132000D01*
X172617194Y-86151134D01*
X172606355Y-86167355D01*
X172590134Y-86178194D01*
X172571000Y-86182000D01*
X170071000Y-86182000D01*
X170051866Y-86178194D01*
X170035645Y-86167355D01*
X170024806Y-86151134D01*
X170021000Y-86132000D01*
X170021000Y-85032000D01*
X170024806Y-85012866D01*
X170035645Y-84996645D01*
X170051866Y-84985806D01*
X170071000Y-84982000D01*
X172571000Y-84982000D01*
X172590134Y-84985806D01*
G37*
G36*
X178512537Y-84882224D02*
G01*
X178577421Y-84925579D01*
X178620776Y-84990463D01*
X178636000Y-85067000D01*
X178636000Y-85367000D01*
X178620776Y-85443537D01*
X178577421Y-85508421D01*
X178512537Y-85551776D01*
X178436000Y-85567000D01*
X176786000Y-85567000D01*
X176709463Y-85551776D01*
X176644579Y-85508421D01*
X176601224Y-85443537D01*
X176586000Y-85367000D01*
X176586000Y-85067000D01*
X176601224Y-84990463D01*
X176644579Y-84925579D01*
X176709463Y-84882224D01*
X176786000Y-84867000D01*
X178436000Y-84867000D01*
X178512537Y-84882224D01*
G37*
G36*
X183462537Y-84882224D02*
G01*
X183527421Y-84925579D01*
X183570776Y-84990463D01*
X183586000Y-85067000D01*
X183586000Y-85367000D01*
X183570776Y-85443537D01*
X183527421Y-85508421D01*
X183462537Y-85551776D01*
X183386000Y-85567000D01*
X181736000Y-85567000D01*
X181659463Y-85551776D01*
X181594579Y-85508421D01*
X181551224Y-85443537D01*
X181536000Y-85367000D01*
X181536000Y-85067000D01*
X181551224Y-84990463D01*
X181594579Y-84925579D01*
X181659463Y-84882224D01*
X181736000Y-84867000D01*
X183386000Y-84867000D01*
X183462537Y-84882224D01*
G37*
G36*
X185069403Y-84374418D02*
G01*
X185118066Y-84406934D01*
X185150582Y-84455597D01*
X185162000Y-84513000D01*
X185162000Y-84773000D01*
X185150582Y-84830403D01*
X185118066Y-84879066D01*
X185069403Y-84911582D01*
X185012269Y-84922946D01*
X185012266Y-85003052D01*
X185069403Y-85014418D01*
X185118066Y-85046934D01*
X185150582Y-85095597D01*
X185162000Y-85153000D01*
X185162000Y-85413000D01*
X185150582Y-85470403D01*
X185118066Y-85519066D01*
X185069403Y-85551582D01*
X185012000Y-85563000D01*
X184812000Y-85563000D01*
X184754597Y-85551582D01*
X184705934Y-85519066D01*
X184673418Y-85470403D01*
X184662000Y-85413000D01*
X184662000Y-85153000D01*
X184673418Y-85095597D01*
X184705934Y-85046934D01*
X184754597Y-85014418D01*
X184811731Y-85003053D01*
X184811731Y-84922946D01*
X184754597Y-84911582D01*
X184705934Y-84879066D01*
X184673418Y-84830403D01*
X184662000Y-84773000D01*
X184662000Y-84513000D01*
X184673418Y-84455597D01*
X184705934Y-84406934D01*
X184754597Y-84374418D01*
X184812000Y-84363000D01*
X185012000Y-84363000D01*
X185069403Y-84374418D01*
G37*
G36*
X189093606Y-83310930D02*
G01*
X189140076Y-83310930D01*
X189180202Y-83319459D01*
X189221533Y-83323530D01*
X189273460Y-83339282D01*
X189324115Y-83350049D01*
X189356527Y-83364479D01*
X189390321Y-83374731D01*
X189444023Y-83403435D01*
X189496000Y-83426577D01*
X189520165Y-83444134D01*
X189545878Y-83457878D01*
X189598333Y-83500927D01*
X189648218Y-83537170D01*
X189664412Y-83555155D01*
X189682225Y-83569774D01*
X189730089Y-83628097D01*
X189774115Y-83676993D01*
X189783365Y-83693015D01*
X189794121Y-83706121D01*
X189833908Y-83780557D01*
X189868191Y-83839937D01*
X189872134Y-83852074D01*
X189877268Y-83861678D01*
X189905568Y-83954971D01*
X189926333Y-84018879D01*
X189927064Y-84025834D01*
X189928469Y-84030466D01*
X189942152Y-84169397D01*
X189946000Y-84206000D01*
X189942150Y-84242629D01*
X189928469Y-84381533D01*
X189927064Y-84386164D01*
X189926333Y-84393121D01*
X189905563Y-84457042D01*
X189877268Y-84550321D01*
X189872135Y-84559923D01*
X189868191Y-84572063D01*
X189833901Y-84631454D01*
X189794121Y-84705878D01*
X189783367Y-84718981D01*
X189774115Y-84735007D01*
X189730080Y-84783912D01*
X189682225Y-84842225D01*
X189664415Y-84856840D01*
X189648218Y-84874830D01*
X189598323Y-84911080D01*
X189545878Y-84954121D01*
X189520171Y-84967861D01*
X189496000Y-84985423D01*
X189444012Y-85008569D01*
X189390321Y-85037268D01*
X189356534Y-85047517D01*
X189324115Y-85061951D01*
X189273449Y-85072720D01*
X189221533Y-85088469D01*
X189180210Y-85092538D01*
X189140076Y-85101070D01*
X189093597Y-85101070D01*
X189046000Y-85105758D01*
X188998403Y-85101070D01*
X188951924Y-85101070D01*
X188911789Y-85092539D01*
X188870466Y-85088469D01*
X188818546Y-85072719D01*
X188767885Y-85061951D01*
X188735467Y-85047517D01*
X188701678Y-85037268D01*
X188647981Y-85008566D01*
X188596000Y-84985423D01*
X188571831Y-84967863D01*
X188546121Y-84954121D01*
X188493667Y-84911074D01*
X188443782Y-84874830D01*
X188427587Y-84856843D01*
X188409774Y-84842225D01*
X188361908Y-84783899D01*
X188317885Y-84735007D01*
X188308634Y-84718985D01*
X188297878Y-84705878D01*
X188258085Y-84631431D01*
X188223809Y-84572063D01*
X188219866Y-84559928D01*
X188214731Y-84550321D01*
X188186421Y-84456996D01*
X188165667Y-84393121D01*
X188164936Y-84386169D01*
X188163530Y-84381533D01*
X188149833Y-84242478D01*
X188146000Y-84206000D01*
X188149831Y-84169548D01*
X188163530Y-84030466D01*
X188164936Y-84025829D01*
X188165667Y-84018879D01*
X188186416Y-83955017D01*
X188214731Y-83861678D01*
X188219866Y-83852069D01*
X188223809Y-83839937D01*
X188258078Y-83780581D01*
X188297878Y-83706121D01*
X188308636Y-83693011D01*
X188317885Y-83676993D01*
X188361898Y-83628110D01*
X188409774Y-83569774D01*
X188427590Y-83555152D01*
X188443782Y-83537170D01*
X188493657Y-83500933D01*
X188546121Y-83457878D01*
X188571836Y-83444132D01*
X188596000Y-83426577D01*
X188647970Y-83403438D01*
X188701678Y-83374731D01*
X188735474Y-83364478D01*
X188767885Y-83350049D01*
X188818535Y-83339282D01*
X188870466Y-83323530D01*
X188911798Y-83319458D01*
X188951924Y-83310930D01*
X188998392Y-83310930D01*
X189045999Y-83306241D01*
X189093606Y-83310930D01*
G37*
G36*
X178512537Y-83612224D02*
G01*
X178577421Y-83655579D01*
X178620776Y-83720463D01*
X178636000Y-83797000D01*
X178636000Y-84097000D01*
X178620776Y-84173537D01*
X178577421Y-84238421D01*
X178512537Y-84281776D01*
X178436000Y-84297000D01*
X176786000Y-84297000D01*
X176709463Y-84281776D01*
X176644579Y-84238421D01*
X176601224Y-84173537D01*
X176586000Y-84097000D01*
X176586000Y-83797000D01*
X176601224Y-83720463D01*
X176644579Y-83655579D01*
X176709463Y-83612224D01*
X176786000Y-83597000D01*
X178436000Y-83597000D01*
X178512537Y-83612224D01*
G37*
G36*
X183462537Y-83612224D02*
G01*
X183527421Y-83655579D01*
X183570776Y-83720463D01*
X183586000Y-83797000D01*
X183586000Y-84097000D01*
X183570776Y-84173537D01*
X183527421Y-84238421D01*
X183462537Y-84281776D01*
X183386000Y-84297000D01*
X181736000Y-84297000D01*
X181659463Y-84281776D01*
X181594579Y-84238421D01*
X181551224Y-84173537D01*
X181536000Y-84097000D01*
X181536000Y-83797000D01*
X181551224Y-83720463D01*
X181594579Y-83655579D01*
X181659463Y-83612224D01*
X181736000Y-83597000D01*
X183386000Y-83597000D01*
X183462537Y-83612224D01*
G37*
G36*
X172590134Y-82985806D02*
G01*
X172606355Y-82996645D01*
X172617194Y-83012866D01*
X172621000Y-83032000D01*
X172621000Y-84132000D01*
X172617194Y-84151134D01*
X172606355Y-84167355D01*
X172590134Y-84178194D01*
X172571000Y-84182000D01*
X170071000Y-84182000D01*
X170051866Y-84178194D01*
X170035645Y-84167355D01*
X170024806Y-84151134D01*
X170021000Y-84132000D01*
X170021000Y-83032000D01*
X170024806Y-83012866D01*
X170035645Y-82996645D01*
X170051866Y-82985806D01*
X170071000Y-82982000D01*
X172571000Y-82982000D01*
X172590134Y-82985806D01*
G37*
G36*
X185069403Y-82814418D02*
G01*
X185118066Y-82846934D01*
X185150582Y-82895597D01*
X185162000Y-82953000D01*
X185162000Y-83213000D01*
X185150582Y-83270403D01*
X185118066Y-83319066D01*
X185069403Y-83351582D01*
X185012269Y-83362946D01*
X185012266Y-83443052D01*
X185069403Y-83454418D01*
X185118066Y-83486934D01*
X185150582Y-83535597D01*
X185162000Y-83593000D01*
X185162000Y-83853000D01*
X185150582Y-83910403D01*
X185118066Y-83959066D01*
X185069403Y-83991582D01*
X185012000Y-84003000D01*
X184812000Y-84003000D01*
X184754597Y-83991582D01*
X184705934Y-83959066D01*
X184673418Y-83910403D01*
X184662000Y-83853000D01*
X184662000Y-83593000D01*
X184673418Y-83535597D01*
X184705934Y-83486934D01*
X184754597Y-83454418D01*
X184811731Y-83443053D01*
X184811731Y-83362946D01*
X184754597Y-83351582D01*
X184705934Y-83319066D01*
X184673418Y-83270403D01*
X184662000Y-83213000D01*
X184662000Y-82953000D01*
X184673418Y-82895597D01*
X184705934Y-82846934D01*
X184754597Y-82814418D01*
X184812000Y-82803000D01*
X185012000Y-82803000D01*
X185069403Y-82814418D01*
G37*
G36*
X168606995Y-81686739D02*
G01*
X168643278Y-81686739D01*
X168684880Y-81696993D01*
X168726291Y-81702445D01*
X168754638Y-81714186D01*
X168783632Y-81721333D01*
X168827591Y-81744404D01*
X168871000Y-81762385D01*
X168890804Y-81777581D01*
X168911629Y-81788511D01*
X168954202Y-81826228D01*
X168995264Y-81857736D01*
X169006935Y-81872946D01*
X169019832Y-81884372D01*
X169056821Y-81937959D01*
X169090615Y-81982000D01*
X169095707Y-81994293D01*
X169101948Y-82003335D01*
X169129020Y-82074719D01*
X169150555Y-82126709D01*
X169151521Y-82134050D01*
X169153209Y-82138500D01*
X169166278Y-82246140D01*
X169171000Y-82282000D01*
X169166278Y-82317862D01*
X169153209Y-82425499D01*
X169151521Y-82429947D01*
X169150555Y-82437291D01*
X169129015Y-82489291D01*
X169101948Y-82560664D01*
X169095708Y-82569703D01*
X169090615Y-82582000D01*
X169056814Y-82626049D01*
X169019832Y-82679627D01*
X169006937Y-82691050D01*
X168995264Y-82706264D01*
X168954194Y-82737777D01*
X168911629Y-82775488D01*
X168890808Y-82786415D01*
X168871000Y-82801615D01*
X168827582Y-82819598D01*
X168783632Y-82842666D01*
X168754642Y-82849811D01*
X168726291Y-82861555D01*
X168684877Y-82867007D01*
X168643278Y-82877261D01*
X168606995Y-82877261D01*
X168571000Y-82882000D01*
X168535005Y-82877261D01*
X168498722Y-82877261D01*
X168457121Y-82867007D01*
X168415709Y-82861555D01*
X168387358Y-82849811D01*
X168358367Y-82842666D01*
X168314412Y-82819596D01*
X168271000Y-82801615D01*
X168251193Y-82786417D01*
X168230370Y-82775488D01*
X168187798Y-82737772D01*
X168146736Y-82706264D01*
X168135064Y-82691053D01*
X168122167Y-82679627D01*
X168085175Y-82626036D01*
X168051385Y-82582000D01*
X168046293Y-82569707D01*
X168040051Y-82560664D01*
X168012972Y-82489262D01*
X167991445Y-82437291D01*
X167990478Y-82429951D01*
X167988790Y-82425499D01*
X167975709Y-82317773D01*
X167971000Y-82282000D01*
X167975707Y-82246247D01*
X167988790Y-82138500D01*
X167990478Y-82134046D01*
X167991445Y-82126709D01*
X168012967Y-82074748D01*
X168040051Y-82003335D01*
X168046294Y-81994290D01*
X168051385Y-81982000D01*
X168085168Y-81937972D01*
X168122167Y-81884372D01*
X168135066Y-81872943D01*
X168146736Y-81857736D01*
X168187789Y-81826234D01*
X168230370Y-81788511D01*
X168251197Y-81777579D01*
X168271000Y-81762385D01*
X168314403Y-81744406D01*
X168358367Y-81721333D01*
X168387363Y-81714186D01*
X168415709Y-81702445D01*
X168457118Y-81696993D01*
X168498722Y-81686739D01*
X168535005Y-81686739D01*
X168571000Y-81682000D01*
X168606995Y-81686739D01*
G37*
G36*
X182112403Y-82311418D02*
G01*
X182161066Y-82343934D01*
X182193582Y-82392597D01*
X182204946Y-82449729D01*
X182285053Y-82449732D01*
X182296418Y-82392597D01*
X182328934Y-82343934D01*
X182377597Y-82311418D01*
X182435000Y-82300000D01*
X182695000Y-82300000D01*
X182752403Y-82311418D01*
X182801066Y-82343934D01*
X182833582Y-82392597D01*
X182845000Y-82450000D01*
X182845000Y-82650000D01*
X182833582Y-82707403D01*
X182801066Y-82756066D01*
X182752403Y-82788582D01*
X182695000Y-82800000D01*
X182435000Y-82800000D01*
X182377597Y-82788582D01*
X182328934Y-82756066D01*
X182296418Y-82707403D01*
X182285053Y-82650268D01*
X182204947Y-82650268D01*
X182193582Y-82707403D01*
X182161066Y-82756066D01*
X182112403Y-82788582D01*
X182055000Y-82800000D01*
X181795000Y-82800000D01*
X181737597Y-82788582D01*
X181688934Y-82756066D01*
X181656418Y-82707403D01*
X181645000Y-82650000D01*
X181645000Y-82450000D01*
X181656418Y-82392597D01*
X181688934Y-82343934D01*
X181737597Y-82311418D01*
X181795000Y-82300000D01*
X182055000Y-82300000D01*
X182112403Y-82311418D01*
G37*
G36*
X189093606Y-80770930D02*
G01*
X189140076Y-80770930D01*
X189180202Y-80779459D01*
X189221533Y-80783530D01*
X189273460Y-80799282D01*
X189324115Y-80810049D01*
X189356527Y-80824479D01*
X189390321Y-80834731D01*
X189444023Y-80863435D01*
X189496000Y-80886577D01*
X189520165Y-80904134D01*
X189545878Y-80917878D01*
X189598333Y-80960927D01*
X189648218Y-80997170D01*
X189664412Y-81015155D01*
X189682225Y-81029774D01*
X189730089Y-81088097D01*
X189774115Y-81136993D01*
X189783365Y-81153015D01*
X189794121Y-81166121D01*
X189833908Y-81240557D01*
X189868191Y-81299937D01*
X189872134Y-81312074D01*
X189877268Y-81321678D01*
X189905568Y-81414971D01*
X189926333Y-81478879D01*
X189927064Y-81485834D01*
X189928469Y-81490466D01*
X189942151Y-81629385D01*
X189946000Y-81666000D01*
X189942151Y-81702617D01*
X189928469Y-81841533D01*
X189927064Y-81846164D01*
X189926333Y-81853121D01*
X189905563Y-81917042D01*
X189877268Y-82010321D01*
X189872135Y-82019923D01*
X189868191Y-82032063D01*
X189833901Y-82091454D01*
X189794121Y-82165878D01*
X189783367Y-82178981D01*
X189774115Y-82195007D01*
X189730080Y-82243912D01*
X189682225Y-82302225D01*
X189664415Y-82316840D01*
X189648218Y-82334830D01*
X189598323Y-82371080D01*
X189545878Y-82414121D01*
X189520171Y-82427861D01*
X189496000Y-82445423D01*
X189444012Y-82468569D01*
X189390321Y-82497268D01*
X189356534Y-82507517D01*
X189324115Y-82521951D01*
X189273449Y-82532720D01*
X189221533Y-82548469D01*
X189180210Y-82552538D01*
X189140076Y-82561070D01*
X189093597Y-82561070D01*
X189046000Y-82565758D01*
X188998403Y-82561070D01*
X188951924Y-82561070D01*
X188911789Y-82552539D01*
X188870466Y-82548469D01*
X188818546Y-82532719D01*
X188767885Y-82521951D01*
X188735467Y-82507517D01*
X188701678Y-82497268D01*
X188647981Y-82468566D01*
X188596000Y-82445423D01*
X188571831Y-82427863D01*
X188546121Y-82414121D01*
X188493667Y-82371074D01*
X188443782Y-82334830D01*
X188427587Y-82316843D01*
X188409774Y-82302225D01*
X188361908Y-82243899D01*
X188317885Y-82195007D01*
X188308634Y-82178985D01*
X188297878Y-82165878D01*
X188258085Y-82091431D01*
X188223809Y-82032063D01*
X188219866Y-82019928D01*
X188214731Y-82010321D01*
X188186421Y-81916996D01*
X188165667Y-81853121D01*
X188164936Y-81846169D01*
X188163530Y-81841533D01*
X188149832Y-81702466D01*
X188146000Y-81666000D01*
X188149832Y-81629536D01*
X188163530Y-81490466D01*
X188164936Y-81485829D01*
X188165667Y-81478879D01*
X188186416Y-81415017D01*
X188214731Y-81321678D01*
X188219866Y-81312069D01*
X188223809Y-81299937D01*
X188258078Y-81240581D01*
X188297878Y-81166121D01*
X188308636Y-81153011D01*
X188317885Y-81136993D01*
X188361898Y-81088110D01*
X188409774Y-81029774D01*
X188427590Y-81015152D01*
X188443782Y-80997170D01*
X188493657Y-80960933D01*
X188546121Y-80917878D01*
X188571836Y-80904132D01*
X188596000Y-80886577D01*
X188647970Y-80863438D01*
X188701678Y-80834731D01*
X188735474Y-80824478D01*
X188767885Y-80810049D01*
X188818535Y-80799282D01*
X188870466Y-80783530D01*
X188911798Y-80779458D01*
X188951924Y-80770930D01*
X188998392Y-80770930D01*
X189045999Y-80766241D01*
X189093606Y-80770930D01*
G37*
G36*
X172590134Y-80485806D02*
G01*
X172606355Y-80496645D01*
X172617194Y-80512866D01*
X172621000Y-80532000D01*
X172621000Y-81632000D01*
X172617194Y-81651134D01*
X172606355Y-81667355D01*
X172590134Y-81678194D01*
X172571000Y-81682000D01*
X170071000Y-81682000D01*
X170051866Y-81678194D01*
X170035645Y-81667355D01*
X170024806Y-81651134D01*
X170021000Y-81632000D01*
X170021000Y-80532000D01*
X170024806Y-80512866D01*
X170035645Y-80496645D01*
X170051866Y-80485806D01*
X170071000Y-80482000D01*
X172571000Y-80482000D01*
X172590134Y-80485806D01*
G37*
G36*
X189915134Y-78229806D02*
G01*
X189931355Y-78240645D01*
X189942194Y-78256866D01*
X189946000Y-78276000D01*
X189946000Y-79976000D01*
X189942194Y-79995134D01*
X189931355Y-80011355D01*
X189915134Y-80022194D01*
X189896000Y-80026000D01*
X188196000Y-80026000D01*
X188176866Y-80022194D01*
X188160645Y-80011355D01*
X188149806Y-79995134D01*
X188146000Y-79976000D01*
X188146000Y-78276000D01*
X188149806Y-78256866D01*
X188160645Y-78240645D01*
X188176866Y-78229806D01*
X188196000Y-78226000D01*
X189896000Y-78226000D01*
X189915134Y-78229806D01*
G37*
G36*
X169472168Y-77887131D02*
G01*
X169519586Y-77896875D01*
X169566042Y-77901451D01*
X169616855Y-77916864D01*
X169670363Y-77927861D01*
X169711983Y-77945721D01*
X169753591Y-77958343D01*
X169803252Y-77984887D01*
X169856302Y-78007653D01*
X169890917Y-78031746D01*
X169926433Y-78050730D01*
X169972449Y-78088494D01*
X170022372Y-78123242D01*
X170049273Y-78151542D01*
X170077935Y-78175064D01*
X170117750Y-78223579D01*
X170161776Y-78269894D01*
X170180775Y-78300376D01*
X170202269Y-78326566D01*
X170233387Y-78384783D01*
X170268805Y-78441606D01*
X170280187Y-78472339D01*
X170294656Y-78499408D01*
X170314770Y-78565717D01*
X170339077Y-78631347D01*
X170343564Y-78660638D01*
X170351548Y-78686957D01*
X170358662Y-78759193D01*
X170369717Y-78831351D01*
X170368375Y-78857806D01*
X170370758Y-78881999D01*
X170363315Y-78957560D01*
X170359468Y-79033428D01*
X170353618Y-79056020D01*
X170351548Y-79077042D01*
X170328521Y-79152951D01*
X170308752Y-79229305D01*
X170299862Y-79247427D01*
X170294656Y-79264591D01*
X170255623Y-79337615D01*
X170219644Y-79410964D01*
X170209216Y-79424435D01*
X170202269Y-79437433D01*
X170147463Y-79504214D01*
X170095793Y-79570967D01*
X170085260Y-79580008D01*
X170077935Y-79588935D01*
X170008141Y-79646212D01*
X169942268Y-79702763D01*
X169932896Y-79707964D01*
X169926433Y-79713269D01*
X169842821Y-79757960D01*
X169765356Y-79800958D01*
X169758151Y-79803218D01*
X169753591Y-79805656D01*
X169656858Y-79834999D01*
X169572299Y-79861530D01*
X169567934Y-79861973D01*
X169566042Y-79862548D01*
X169446617Y-79874310D01*
X169371000Y-79882000D01*
X169368546Y-79882000D01*
X167773454Y-79882000D01*
X167771000Y-79882000D01*
X167669832Y-79876869D01*
X167622407Y-79867123D01*
X167575957Y-79862548D01*
X167525152Y-79847136D01*
X167471637Y-79836139D01*
X167430011Y-79818276D01*
X167388408Y-79805656D01*
X167338752Y-79779114D01*
X167285698Y-79756347D01*
X167251079Y-79732251D01*
X167215566Y-79713269D01*
X167169551Y-79675506D01*
X167119628Y-79640758D01*
X167092725Y-79612456D01*
X167064064Y-79588935D01*
X167024248Y-79540419D01*
X166980224Y-79494106D01*
X166961224Y-79463624D01*
X166939730Y-79437433D01*
X166908609Y-79379211D01*
X166873195Y-79322394D01*
X166861813Y-79291663D01*
X166847343Y-79264591D01*
X166827225Y-79198271D01*
X166802923Y-79132653D01*
X166798436Y-79103366D01*
X166790451Y-79077042D01*
X166783334Y-79004790D01*
X166772283Y-78932649D01*
X166773624Y-78906199D01*
X166771241Y-78881999D01*
X166778685Y-78806415D01*
X166782532Y-78730572D01*
X166788379Y-78707986D01*
X166790451Y-78686957D01*
X166813486Y-78611019D01*
X166833248Y-78534695D01*
X166842134Y-78516579D01*
X166847343Y-78499408D01*
X166886393Y-78426349D01*
X166922356Y-78353036D01*
X166932778Y-78339571D01*
X166939730Y-78326566D01*
X166994567Y-78259746D01*
X167046207Y-78193033D01*
X167056733Y-78183996D01*
X167064064Y-78175064D01*
X167133906Y-78117746D01*
X167199732Y-78061237D01*
X167209096Y-78056038D01*
X167215566Y-78050730D01*
X167299253Y-78005997D01*
X167376644Y-77963042D01*
X167383841Y-77960783D01*
X167388408Y-77958343D01*
X167485266Y-77928961D01*
X167569701Y-77902470D01*
X167574058Y-77902026D01*
X167575957Y-77901451D01*
X167695518Y-77889675D01*
X167771000Y-77882000D01*
X169371000Y-77882000D01*
X169472168Y-77887131D01*
G37*
M02*
